<svg xmlns="http://www.w3.org/2000/svg" width="3000" height="2000"><path d="M1616,949L1773,849L1669,824Z" fill="#848484" stroke="#848484" stroke-width="1.51"/><path d="M1616,949L1846,1063L1773,849Z" fill="#818181" stroke="#818181" stroke-width="1.51"/><path d="M1616,949L1757,1169L1846,1063Z" fill="#808080" stroke="#808080" stroke-width="1.51"/><path d="M1660,1166L1757,1169L1616,949Z" fill="#7f7f7f" stroke="#7f7f7f" stroke-width="1.51"/><path d="M1669,824L1464,741L1616,949Z" fill="#858585" stroke="#858585" stroke-width="1.51"/><path d="M1616,949L1392,1187L1660,1166Z" fill="#7e7e7e" stroke="#7e7e7e" stroke-width="1.51"/><path d="M1641,535L1464,741L1669,824Z" fill="#8d8d8d" stroke="#8d8d8d" stroke-width="1.51"/><path d="M1773,849L1750,578L1669,824Z" fill="#8c8c8c" stroke="#8c8c8c" stroke-width="1.51"/><path d="M1935,513L1750,578L1773,849Z" fill="#949494" stroke="#949494" stroke-width="1.51"/><path d="M1846,1063L2047,868L1773,849Z" fill="#848484" stroke="#848484" stroke-width="1.51"/><path d="M2117,944L2047,868L1846,1063Z" fill="#848484" stroke="#848484" stroke-width="1.51"/><path d="M1750,578L1641,535L1669,824Z" fill="#929292" stroke="#929292" stroke-width="1.51"/><path d="M1464,741L1312,909L1616,949Z" fill="#848484" stroke="#848484" stroke-width="1.51"/><path d="M1243,785L1312,909L1464,741Z" fill="#8b8b8b" stroke="#8b8b8b" stroke-width="1.51"/><path d="M1312,909L1392,1187L1616,949Z" fill="#7d7d7d" stroke="#7d7d7d" stroke-width="1.51"/><path d="M1660,1166L1681,1330L1757,1169Z" fill="#828282" stroke="#828282" stroke-width="1.51"/><path d="M2101,1258L2117,944L1846,1063Z" fill="#848484" stroke="#848484" stroke-width="1.51"/><path d="M1392,1187L1681,1330L1660,1166Z" fill="#818181" stroke="#818181" stroke-width="1.51"/><path d="M1757,1169L2101,1258L1846,1063Z" fill="#848484" stroke="#848484" stroke-width="1.51"/><path d="M1641,535L1368,652L1464,741Z" fill="#909090" stroke="#909090" stroke-width="1.51"/><path d="M2117,944L2153,921L2047,868Z" fill="#888888" stroke="#888888" stroke-width="1.51"/><path d="M2047,868L1935,513L1773,849Z" fill="#8f8f8f" stroke="#8f8f8f" stroke-width="1.51"/><path d="M2236,1168L2153,921L2117,944Z" fill="#848484" stroke="#848484" stroke-width="1.51"/><path d="M1243,785L1271,1064L1312,909Z" fill="#888888" stroke="#888888" stroke-width="1.51"/><path d="M1312,909L1271,1064L1392,1187Z" fill="#828282" stroke="#828282" stroke-width="1.51"/><path d="M2153,921L2158,840L2047,868Z" fill="#8a8a8a" stroke="#8a8a8a" stroke-width="1.51"/><path d="M2158,840L1935,513L2047,868Z" fill="#919191" stroke="#919191" stroke-width="1.51"/><path d="M1750,578L1789,448L1641,535Z" fill="#9a9a9a" stroke="#9a9a9a" stroke-width="1.51"/><path d="M1681,1330L1728,1381L1757,1169Z" fill="#848484" stroke="#848484" stroke-width="1.51"/><path d="M1653,1593L1728,1381L1681,1330Z" fill="#868686" stroke="#868686" stroke-width="1.51"/><path d="M1935,513L1789,448L1750,578Z" fill="#9c9c9c" stroke="#9c9c9c" stroke-width="1.51"/><path d="M1641,535L1376,375L1368,652Z" fill="#989898" stroke="#989898" stroke-width="1.51"/><path d="M1368,652L1243,785L1464,741Z" fill="#909090" stroke="#909090" stroke-width="1.51"/><path d="M1728,1381L2101,1258L1757,1169Z" fill="#858585" stroke="#858585" stroke-width="1.51"/><path d="M1789,448L1621,363L1641,535Z" fill="#9d9d9d" stroke="#9d9d9d" stroke-width="1.51"/><path d="M1368,652L1217,590L1243,785Z" fill="#969696" stroke="#969696" stroke-width="1.51"/><path d="M1867,213L1621,363L1789,448Z" fill="#a4a4a4" stroke="#a4a4a4" stroke-width="1.51"/><path d="M1392,1187L1324,1430L1681,1330Z" fill="#838383" stroke="#838383" stroke-width="1.51"/><path d="M1271,1064L1251,1242L1392,1187Z" fill="#868686" stroke="#868686" stroke-width="1.51"/><path d="M946,1180L1251,1242L1271,1064Z" fill="#8b8b8b" stroke="#8b8b8b" stroke-width="1.51"/><path d="M1376,375L1217,590L1368,652Z" fill="#9c9c9c" stroke="#9c9c9c" stroke-width="1.51"/><path d="M1243,785L888,1043L1271,1064Z" fill="#8b8b8b" stroke="#8b8b8b" stroke-width="1.51"/><path d="M2101,1258L2236,1168L2117,944Z" fill="#868686" stroke="#868686" stroke-width="1.51"/><path d="M2153,921L2472,785L2158,840Z" fill="#8e8e8e" stroke="#8e8e8e" stroke-width="1.51"/><path d="M1935,513L1867,213L1789,448Z" fill="#a3a3a3" stroke="#a3a3a3" stroke-width="1.51"/><path d="M2292,530L2080,424L1935,513Z" fill="#a1a1a1" stroke="#a1a1a1" stroke-width="1.51"/><path d="M2292,530L1935,513L2158,840Z" fill="#999999" stroke="#999999" stroke-width="1.51"/><path d="M1621,363L1376,375L1641,535Z" fill="#9c9c9c" stroke="#9c9c9c" stroke-width="1.51"/><path d="M1251,1242L1324,1430L1392,1187Z" fill="#878787" stroke="#878787" stroke-width="1.51"/><path d="M1728,1381L2044,1480L2101,1258Z" fill="#898989" stroke="#898989" stroke-width="1.51"/><path d="M2363,1459L2410,1201L2236,1168Z" fill="#8d8d8d" stroke="#8d8d8d" stroke-width="1.51"/><path d="M1872,1606L2044,1480L1728,1381Z" fill="#8b8b8b" stroke="#8b8b8b" stroke-width="1.51"/><path d="M911,1343L1239,1391L1251,1242Z" fill="#909090" stroke="#909090" stroke-width="1.51"/><path d="M1251,1242L1239,1391L1324,1430Z" fill="#8b8b8b" stroke="#8b8b8b" stroke-width="1.51"/><path d="M1306,1677L1653,1593L1324,1430Z" fill="#898989" stroke="#898989" stroke-width="1.51"/><path d="M1324,1430L1653,1593L1681,1330Z" fill="#858585" stroke="#858585" stroke-width="1.51"/><path d="M1376,375L1223,409L1217,590Z" fill="#a3a3a3" stroke="#a3a3a3" stroke-width="1.51"/><path d="M2472,785L2292,530L2158,840Z" fill="#969696" stroke="#969696" stroke-width="1.51"/><path d="M1653,1593L1872,1606L1728,1381Z" fill="#898989" stroke="#898989" stroke-width="1.51"/><path d="M2080,424L1867,213L1935,513Z" fill="#a5a5a5" stroke="#a5a5a5" stroke-width="1.51"/><path d="M1621,363L1346,202L1376,375Z" fill="#a5a5a5" stroke="#a5a5a5" stroke-width="1.51"/><path d="M1376,375L1271,228L1223,409Z" fill="#a9a9a9" stroke="#a9a9a9" stroke-width="1.51"/><path d="M2066,91L1867,213L2080,424Z" fill="#aeaeae" stroke="#aeaeae" stroke-width="1.51"/><path d="M2236,1168L2422,1074L2153,921Z" fill="#878787" stroke="#878787" stroke-width="1.51"/><path d="M2410,1201L2422,1074L2236,1168Z" fill="#8a8a8a" stroke="#8a8a8a" stroke-width="1.51"/><path d="M1867,213L1641,167L1621,363Z" fill="#aaaaaa" stroke="#aaaaaa" stroke-width="1.51"/><path d="M1217,590L1013,590L1243,785Z" fill="#9c9c9c" stroke="#9c9c9c" stroke-width="1.51"/><path d="M1223,409L1013,590L1217,590Z" fill="#a4a4a4" stroke="#a4a4a4" stroke-width="1.51"/><path d="M2292,530L2191,327L2080,424Z" fill="#a6a6a6" stroke="#a6a6a6" stroke-width="1.51"/><path d="M2238,1484L2236,1168L2101,1258Z" fill="#8b8b8b" stroke="#8b8b8b" stroke-width="1.51"/><path d="M1013,590L957,711L1243,785Z" fill="#9d9d9d" stroke="#9d9d9d" stroke-width="1.51"/><path d="M2422,1074L2472,785L2153,921Z" fill="#8b8b8b" stroke="#8b8b8b" stroke-width="1.51"/><path d="M2292,530L2490,429L2191,327Z" fill="#a8a8a8" stroke="#a8a8a8" stroke-width="1.51"/><path d="M2595,1011L2472,785L2422,1074Z" fill="#8b8b8b" stroke="#8b8b8b" stroke-width="1.51"/><path d="M2044,1480L2238,1484L2101,1258Z" fill="#8c8c8c" stroke="#8c8c8c" stroke-width="1.51"/><path d="M2317,1602L2238,1484L2044,1480Z" fill="#909090" stroke="#909090" stroke-width="1.51"/><path d="M1223,409L958,393L1013,590Z" fill="#aaaaaa" stroke="#aaaaaa" stroke-width="1.51"/><path d="M1641,167L1346,202L1621,363Z" fill="#a7a7a7" stroke="#a7a7a7" stroke-width="1.51"/><path d="M888,1043L946,1180L1271,1064Z" fill="#8f8f8f" stroke="#8f8f8f" stroke-width="1.51"/><path d="M1346,202L1271,228L1376,375Z" fill="#acacac" stroke="#acacac" stroke-width="1.51"/><path d="M957,711L888,1043L1243,785Z" fill="#959595" stroke="#959595" stroke-width="1.51"/><path d="M1872,1606L1966,1715L2044,1480Z" fill="#8e8e8e" stroke="#8e8e8e" stroke-width="1.51"/><path d="M1878,1843L1966,1715L1872,1606Z" fill="#909090" stroke="#909090" stroke-width="1.51"/><path d="M2317,1602L2363,1459L2238,1484Z" fill="#919191" stroke="#919191" stroke-width="1.51"/><path d="M2238,1484L2363,1459L2236,1168Z" fill="#8e8e8e" stroke="#8e8e8e" stroke-width="1.51"/><path d="M1239,1391L1306,1677L1324,1430Z" fill="#8d8d8d" stroke="#8d8d8d" stroke-width="1.51"/><path d="M1653,1593L1642,1781L1872,1606Z" fill="#8c8c8c" stroke="#8c8c8c" stroke-width="1.51"/><path d="M1203,1705L1306,1677L1239,1391Z" fill="#919191" stroke="#919191" stroke-width="1.51"/><path d="M1409,1755L1642,1781L1653,1593Z" fill="#8b8b8b" stroke="#8b8b8b" stroke-width="1.51"/><path d="M2472,785L2468,493L2292,530Z" fill="#9f9f9f" stroke="#9f9f9f" stroke-width="1.51"/><path d="M1306,1677L1409,1755L1653,1593Z" fill="#8b8b8b" stroke="#8b8b8b" stroke-width="1.51"/><path d="M2693,1228L2595,1011L2410,1201Z" fill="#8d8d8d" stroke="#8d8d8d" stroke-width="1.51"/><path d="M2410,1201L2595,1011L2422,1074Z" fill="#8b8b8b" stroke="#8b8b8b" stroke-width="1.51"/><path d="M2563,429L2490,429L2468,493Z" fill="#a9a9a9" stroke="#a9a9a9" stroke-width="1.51"/><path d="M2191,327L2066,91L2080,424Z" fill="#adadad" stroke="#adadad" stroke-width="1.51"/><path d="M1867,213L1939,21L1641,167Z" fill="#b2b2b2" stroke="#b2b2b2" stroke-width="1.51"/><path d="M1641,167L1349,-55L1346,202Z" fill="#b1b1b1" stroke="#b1b1b1" stroke-width="1.51"/><path d="M2265,138L2066,91L2191,327Z" fill="#b4b4b4" stroke="#b4b4b4" stroke-width="1.51"/><path d="M946,1180L911,1343L1251,1242Z" fill="#929292" stroke="#929292" stroke-width="1.51"/><path d="M818,1232L911,1343L946,1180Z" fill="#989898" stroke="#989898" stroke-width="1.51"/><path d="M1013,590L809,581L957,711Z" fill="#a6a6a6" stroke="#a6a6a6" stroke-width="1.51"/><path d="M957,711L719,933L888,1043Z" fill="#9a9a9a" stroke="#9a9a9a" stroke-width="1.51"/><path d="M1045,215L958,393L1223,409Z" fill="#b2b2b2" stroke="#b2b2b2" stroke-width="1.51"/><path d="M2066,91L1939,21L1867,213Z" fill="#b5b5b5" stroke="#b5b5b5" stroke-width="1.51"/><path d="M2468,493L2490,429L2292,530Z" fill="#a6a6a6" stroke="#a6a6a6" stroke-width="1.51"/><path d="M2563,429L2468,493L2710,638Z" fill="#a6a6a6" stroke="#a6a6a6" stroke-width="1.51"/><path d="M1966,1715L2317,1602L2044,1480Z" fill="#909090" stroke="#909090" stroke-width="1.51"/><path d="M2363,1459L2603,1333L2410,1201Z" fill="#8f8f8f" stroke="#8f8f8f" stroke-width="1.51"/><path d="M1306,1677L1189,1861L1409,1755Z" fill="#939393" stroke="#939393" stroke-width="1.51"/><path d="M1047,1650L1203,1705L1239,1391Z" fill="#949494" stroke="#949494" stroke-width="1.51"/><path d="M911,1343L1047,1650L1239,1391Z" fill="#959595" stroke="#959595" stroke-width="1.51"/><path d="M888,1043L818,1232L946,1180Z" fill="#959595" stroke="#959595" stroke-width="1.51"/><path d="M719,933L818,1232L888,1043Z" fill="#979797" stroke="#979797" stroke-width="1.51"/><path d="M1966,1715L2044,1805L2317,1602Z" fill="#929292" stroke="#929292" stroke-width="1.51"/><path d="M1642,1781L1878,1843L1872,1606Z" fill="#8f8f8f" stroke="#8f8f8f" stroke-width="1.51"/><path d="M1739,2120L1878,1843L1642,1781Z" fill="#929292" stroke="#929292" stroke-width="1.51"/><path d="M958,393L809,581L1013,590Z" fill="#adadad" stroke="#adadad" stroke-width="1.51"/><path d="M1878,1843L2044,1805L1966,1715Z" fill="#929292" stroke="#929292" stroke-width="1.51"/><path d="M2044,-179L1904,-88L1939,21Z" fill="#bcbcbc" stroke="#bcbcbc" stroke-width="1.51"/><path d="M2383,219L2265,138L2191,327Z" fill="#b3b3b3" stroke="#b3b3b3" stroke-width="1.51"/><path d="M1271,228L1045,215L1223,409Z" fill="#b1b1b1" stroke="#b1b1b1" stroke-width="1.51"/><path d="M958,393L770,330L809,581Z" fill="#b5b5b5" stroke="#b5b5b5" stroke-width="1.51"/><path d="M1044,-47L1045,215L1271,228Z" fill="#bcbcbc" stroke="#bcbcbc" stroke-width="1.51"/><path d="M1349,-55L1271,228L1346,202Z" fill="#b4b4b4" stroke="#b4b4b4" stroke-width="1.51"/><path d="M2482,1890L2413,1563L2317,1602Z" fill="#969696" stroke="#969696" stroke-width="1.51"/><path d="M2317,1602L2413,1563L2363,1459Z" fill="#929292" stroke="#929292" stroke-width="1.51"/><path d="M2490,429L2383,219L2191,327Z" fill="#aeaeae" stroke="#aeaeae" stroke-width="1.51"/><path d="M2595,1011L2683,880L2472,785Z" fill="#909090" stroke="#909090" stroke-width="1.51"/><path d="M2781,1084L2683,880L2595,1011Z" fill="#8c8c8c" stroke="#8c8c8c" stroke-width="1.51"/><path d="M691,815L719,933L957,711Z" fill="#a0a0a0" stroke="#a0a0a0" stroke-width="1.51"/><path d="M2490,429L2563,429L2383,219Z" fill="#aeaeae" stroke="#aeaeae" stroke-width="1.51"/><path d="M2710,638L2468,493L2472,785Z" fill="#9f9f9f" stroke="#9f9f9f" stroke-width="1.51"/><path d="M848,1475L1047,1650L911,1343Z" fill="#9b9b9b" stroke="#9b9b9b" stroke-width="1.51"/><path d="M1939,21L1605,-71L1641,167Z" fill="#b6b6b6" stroke="#b6b6b6" stroke-width="1.51"/><path d="M2413,1563L2603,1333L2363,1459Z" fill="#929292" stroke="#929292" stroke-width="1.51"/><path d="M809,581L691,815L957,711Z" fill="#a6a6a6" stroke="#a6a6a6" stroke-width="1.51"/><path d="M1939,21L1904,-88L1605,-71Z" fill="#bababa" stroke="#bababa" stroke-width="1.51"/><path d="M2186,-60L1939,21L2066,91Z" fill="#bdbdbd" stroke="#bdbdbd" stroke-width="1.51"/><path d="M818,1232L848,1475L911,1343Z" fill="#9b9b9b" stroke="#9b9b9b" stroke-width="1.51"/><path d="M581,1296L848,1475L818,1232Z" fill="#9f9f9f" stroke="#9f9f9f" stroke-width="1.51"/><path d="M1605,-71L1349,-55L1641,167Z" fill="#b5b5b5" stroke="#b5b5b5" stroke-width="1.51"/><path d="M2913,1240L2693,1228L2953,1371Z" fill="#949494" stroke="#949494" stroke-width="1.51"/><path d="M2603,1333L2693,1228L2410,1201Z" fill="#8f8f8f" stroke="#8f8f8f" stroke-width="1.51"/><path d="M2683,880L2710,638L2472,785Z" fill="#989898" stroke="#989898" stroke-width="1.51"/><path d="M2841,651L2710,638L2683,880Z" fill="#9d9d9d" stroke="#9d9d9d" stroke-width="1.51"/><path d="M1047,1650L1189,1861L1203,1705Z" fill="#989898" stroke="#989898" stroke-width="1.51"/><path d="M1203,1705L1189,1861L1306,1677Z" fill="#959595" stroke="#959595" stroke-width="1.51"/><path d="M1409,1755L1530,2079L1642,1781Z" fill="#8e8e8e" stroke="#8e8e8e" stroke-width="1.51"/><path d="M955,1819L1189,1861L1047,1650Z" fill="#9c9c9c" stroke="#9c9c9c" stroke-width="1.51"/><path d="M1904,-88L1755,-170L1605,-71Z" fill="#b9b9b9" stroke="#b9b9b9" stroke-width="1.51"/><path d="M1605,-71L1481,-281L1349,-55Z" fill="#b6b6b6" stroke="#b6b6b6" stroke-width="1.51"/><path d="M2265,138L2186,-60L2066,91Z" fill="#bcbcbc" stroke="#bcbcbc" stroke-width="1.51"/><path d="M1904,-88L2044,-179L1755,-170Z" fill="#bbbbbb" stroke="#bbbbbb" stroke-width="1.51"/><path d="M2502,-58L2186,-60L2265,138Z" fill="#c1c1c1" stroke="#c1c1c1" stroke-width="1.51"/><path d="M2502,-58L2265,138L2383,219Z" fill="#bcbcbc" stroke="#bcbcbc" stroke-width="1.51"/><path d="M2693,1228L2781,1084L2595,1011Z" fill="#8e8e8e" stroke="#8e8e8e" stroke-width="1.51"/><path d="M809,581L636,503L691,815Z" fill="#aeaeae" stroke="#aeaeae" stroke-width="1.51"/><path d="M1045,215L770,330L958,393Z" fill="#b9b9b9" stroke="#b9b9b9" stroke-width="1.51"/><path d="M746,131L770,330L1045,215Z" fill="#c2c2c2" stroke="#c2c2c2" stroke-width="1.51"/><path d="M2044,1805L2249,1896L2317,1602Z" fill="#959595" stroke="#959595" stroke-width="1.51"/><path d="M2413,1563L2659,1699L2603,1333Z" fill="#959595" stroke="#959595" stroke-width="1.51"/><path d="M2200,2090L2249,1896L2044,1805Z" fill="#989898" stroke="#989898" stroke-width="1.51"/><path d="M2047,2125L2044,1805L1878,1843Z" fill="#969696" stroke="#969696" stroke-width="1.51"/><path d="M1349,-55L1209,-109L1271,228Z" fill="#bdbdbd" stroke="#bdbdbd" stroke-width="1.51"/><path d="M1481,-281L1209,-109L1349,-55Z" fill="#bcbcbc" stroke="#bcbcbc" stroke-width="1.51"/><path d="M770,330L636,503L809,581Z" fill="#b7b7b7" stroke="#b7b7b7" stroke-width="1.51"/><path d="M2186,-60L2044,-179L1939,21Z" fill="#bebebe" stroke="#bebebe" stroke-width="1.51"/><path d="M719,933L561,986L818,1232Z" fill="#9a9a9a" stroke="#9a9a9a" stroke-width="1.51"/><path d="M691,815L561,986L719,933Z" fill="#a1a1a1" stroke="#a1a1a1" stroke-width="1.51"/><path d="M507,867L561,986L691,815Z" fill="#a5a5a5" stroke="#a5a5a5" stroke-width="1.51"/><path d="M1209,-109L1044,-47L1271,228Z" fill="#c1c1c1" stroke="#c1c1c1" stroke-width="1.51"/><path d="M770,330L589,302L636,503Z" fill="#c0c0c0" stroke="#c0c0c0" stroke-width="1.51"/><path d="M2710,638L2907,369L2563,429Z" fill="#ababab" stroke="#ababab" stroke-width="1.51"/><path d="M2563,429L2602,91L2383,219Z" fill="#b6b6b6" stroke="#b6b6b6" stroke-width="1.51"/><path d="M2884,857L2841,651L2683,880Z" fill="#999999" stroke="#999999" stroke-width="1.51"/><path d="M817,1696L1047,1650L848,1475Z" fill="#9f9f9f" stroke="#9f9f9f" stroke-width="1.51"/><path d="M817,1696L955,1819L1047,1650Z" fill="#a0a0a0" stroke="#a0a0a0" stroke-width="1.51"/><path d="M1228,2002L1409,1755L1189,1861Z" fill="#969696" stroke="#969696" stroke-width="1.51"/><path d="M1228,2002L1530,2079L1409,1755Z" fill="#939393" stroke="#939393" stroke-width="1.51"/><path d="M2781,1084L2884,857L2683,880Z" fill="#919191" stroke="#919191" stroke-width="1.51"/><path d="M560,1684L817,1696L848,1475Z" fill="#a5a5a5" stroke="#a5a5a5" stroke-width="1.51"/><path d="M561,986L581,1296L818,1232Z" fill="#9f9f9f" stroke="#9f9f9f" stroke-width="1.51"/><path d="M938,2020L1228,2002L1189,1861Z" fill="#9e9e9e" stroke="#9e9e9e" stroke-width="1.51"/><path d="M371,671L507,867L691,815Z" fill="#adadad" stroke="#adadad" stroke-width="1.51"/><path d="M408,1360L463,1400L581,1296Z" fill="#aaaaaa" stroke="#aaaaaa" stroke-width="1.51"/><path d="M2044,-179L1668,-286L1755,-170Z" fill="#bababa" stroke="#bababa" stroke-width="1.51"/><path d="M1755,-170L1668,-286L1605,-71Z" fill="#b8b8b8" stroke="#b8b8b8" stroke-width="1.51"/><path d="M1209,-109L1171,-264L1044,-47Z" fill="#c3c3c3" stroke="#c3c3c3" stroke-width="1.51"/><path d="M1530,2079L1739,2120L1642,1781Z" fill="#929292" stroke="#929292" stroke-width="1.51"/><path d="M1668,-286L1481,-281L1605,-71Z" fill="#b6b6b6" stroke="#b6b6b6" stroke-width="1.51"/><path d="M2907,369L2602,91L2563,429Z" fill="#b5b5b5" stroke="#b5b5b5" stroke-width="1.51"/><path d="M2186,-60L2246,-223L2044,-179Z" fill="#bfbfbf" stroke="#bfbfbf" stroke-width="1.51"/><path d="M636,503L371,671L691,815Z" fill="#b3b3b3" stroke="#b3b3b3" stroke-width="1.51"/><path d="M1044,-47L746,131L1045,215Z" fill="#c6c6c6" stroke="#c6c6c6" stroke-width="1.51"/><path d="M2482,1890L2659,1699L2413,1563Z" fill="#999999" stroke="#999999" stroke-width="1.51"/><path d="M2693,1228L2913,1240L2781,1084Z" fill="#919191" stroke="#919191" stroke-width="1.51"/><path d="M2781,1084L3002,1049L2884,857Z" fill="#8f8f8f" stroke="#8f8f8f" stroke-width="1.51"/><path d="M1530,2079L1751,2185L1739,2120Z" fill="#939393" stroke="#939393" stroke-width="1.51"/><path d="M1228,2002L1461,2138L1530,2079Z" fill="#949494" stroke="#949494" stroke-width="1.51"/><path d="M2249,1896L2482,1890L2317,1602Z" fill="#989898" stroke="#989898" stroke-width="1.51"/><path d="M2512,2022L2482,1890L2249,1896Z" fill="#9c9c9c" stroke="#9c9c9c" stroke-width="1.51"/><path d="M2953,1371L2693,1228L2603,1333Z" fill="#939393" stroke="#939393" stroke-width="1.51"/><path d="M2602,91L2502,-58L2383,219Z" fill="#bfbfbf" stroke="#bfbfbf" stroke-width="1.51"/><path d="M2044,-179L2246,-223L1668,-286Z" fill="#bdbdbd" stroke="#bdbdbd" stroke-width="1.51"/><path d="M2502,-58L2246,-223L2186,-60Z" fill="#c1c1c1" stroke="#c1c1c1" stroke-width="1.51"/><path d="M1739,2120L2047,2125L1878,1843Z" fill="#969696" stroke="#969696" stroke-width="1.51"/><path d="M1751,2185L2047,2125L1739,2120Z" fill="#959595" stroke="#959595" stroke-width="1.51"/><path d="M746,131L589,302L770,330Z" fill="#c6c6c6" stroke="#c6c6c6" stroke-width="1.51"/><path d="M1645,2334L1751,2185L1530,2079Z" fill="#929292" stroke="#929292" stroke-width="1.51"/><path d="M2047,2125L2200,2090L2044,1805Z" fill="#999999" stroke="#999999" stroke-width="1.51"/><path d="M1044,-47L693,-20L746,131Z" fill="#cfcfcf" stroke="#cfcfcf" stroke-width="1.51"/><path d="M1481,-281L1171,-264L1209,-109Z" fill="#bebebe" stroke="#bebebe" stroke-width="1.51"/><path d="M2047,2125L2058,2168L2200,2090Z" fill="#999999" stroke="#999999" stroke-width="1.51"/><path d="M1751,2185L2058,2168L2047,2125Z" fill="#979797" stroke="#979797" stroke-width="1.51"/><path d="M2913,1240L3002,1049L2781,1084Z" fill="#919191" stroke="#919191" stroke-width="1.51"/><path d="M2884,857L2993,652L2841,651Z" fill="#9f9f9f" stroke="#9f9f9f" stroke-width="1.51"/><path d="M2841,651L2907,369L2710,638Z" fill="#a8a8a8" stroke="#a8a8a8" stroke-width="1.51"/><path d="M2604,-313L2477,-246L2502,-58Z" fill="#c5c5c5" stroke="#c5c5c5" stroke-width="1.51"/><path d="M3087,730L2993,652L2884,857Z" fill="#9f9f9f" stroke="#9f9f9f" stroke-width="1.51"/><path d="M3026,422L2907,369L2841,651Z" fill="#adadad" stroke="#adadad" stroke-width="1.51"/><path d="M1461,2138L1645,2334L1530,2079Z" fill="#919191" stroke="#919191" stroke-width="1.51"/><path d="M1228,2002L1325,2183L1461,2138Z" fill="#969696" stroke="#969696" stroke-width="1.51"/><path d="M1131,2230L1325,2183L1228,2002Z" fill="#9b9b9b" stroke="#9b9b9b" stroke-width="1.51"/><path d="M938,2020L1189,1861L955,1819Z" fill="#a0a0a0" stroke="#a0a0a0" stroke-width="1.51"/><path d="M2659,1699L2953,1371L2603,1333Z" fill="#969696" stroke="#969696" stroke-width="1.51"/><path d="M2913,1240L3092,1157L3002,1049Z" fill="#939393" stroke="#939393" stroke-width="1.51"/><path d="M798,1961L938,2020L955,1819Z" fill="#a6a6a6" stroke="#a6a6a6" stroke-width="1.51"/><path d="M581,1296L463,1400L848,1475Z" fill="#a5a5a5" stroke="#a5a5a5" stroke-width="1.51"/><path d="M408,1360L581,1296L320,1194Z" fill="#aaaaaa" stroke="#aaaaaa" stroke-width="1.51"/><path d="M738,1876L955,1819L817,1696Z" fill="#a5a5a5" stroke="#a5a5a5" stroke-width="1.51"/><path d="M507,867L336,855L561,986Z" fill="#a8a8a8" stroke="#a8a8a8" stroke-width="1.51"/><path d="M408,444L371,671L636,503Z" fill="#bebebe" stroke="#bebebe" stroke-width="1.51"/><path d="M623,1868L738,1876L817,1696Z" fill="#aaaaaa" stroke="#aaaaaa" stroke-width="1.51"/><path d="M2659,1699L2949,1704L2953,1371Z" fill="#9b9b9b" stroke="#9b9b9b" stroke-width="1.51"/><path d="M2482,1890L2708,1837L2659,1699Z" fill="#9c9c9c" stroke="#9c9c9c" stroke-width="1.51"/><path d="M2512,2022L2708,1837L2482,1890Z" fill="#9d9d9d" stroke="#9d9d9d" stroke-width="1.51"/><path d="M2512,2022L2249,1896L2200,2090Z" fill="#9c9c9c" stroke="#9c9c9c" stroke-width="1.51"/><path d="M371,671L336,855L507,867Z" fill="#b1b1b1" stroke="#b1b1b1" stroke-width="1.51"/><path d="M463,1400L560,1684L848,1475Z" fill="#a8a8a8" stroke="#a8a8a8" stroke-width="1.51"/><path d="M320,1194L581,1296L561,986Z" fill="#a5a5a5" stroke="#a5a5a5" stroke-width="1.51"/><path d="M2203,2196L2512,2022L2200,2090Z" fill="#9c9c9c" stroke="#9c9c9c" stroke-width="1.51"/><path d="M589,302L408,444L636,503Z" fill="#c2c2c2" stroke="#c2c2c2" stroke-width="1.51"/><path d="M746,131L573,110L589,302Z" fill="#cdcdcd" stroke="#cdcdcd" stroke-width="1.51"/><path d="M795,-273L693,-20L1044,-47Z" fill="#d0d0d0" stroke="#d0d0d0" stroke-width="1.51"/><path d="M418,102L408,444L589,302Z" fill="#cecece" stroke="#cecece" stroke-width="1.51"/><path d="M196,789L260,1005L336,855Z" fill="#b2b2b2" stroke="#b2b2b2" stroke-width="1.51"/><path d="M1645,2334L2058,2168L1751,2185Z" fill="#959595" stroke="#959595" stroke-width="1.51"/><path d="M1645,2334L2203,2196L2058,2168Z" fill="#979797" stroke="#979797" stroke-width="1.51"/><path d="M2058,2168L2203,2196L2200,2090Z" fill="#999999" stroke="#999999" stroke-width="1.51"/><path d="M289,1573L560,1684L463,1400Z" fill="#b0b0b0" stroke="#b0b0b0" stroke-width="1.51"/><path d="M1171,-264L1043,-301L1044,-47Z" fill="#c6c6c6" stroke="#c6c6c6" stroke-width="1.51"/><path d="M1481,-281L1043,-301L1171,-264Z" fill="#c0c0c0" stroke="#c0c0c0" stroke-width="1.51"/><path d="M1668,-286L1043,-301L1481,-281Z" fill="#b9b9b9" stroke="#b9b9b9" stroke-width="1.51"/><path d="M623,1868L798,1961L738,1876Z" fill="#adadad" stroke="#adadad" stroke-width="1.51"/><path d="M738,1876L798,1961L955,1819Z" fill="#a8a8a8" stroke="#a8a8a8" stroke-width="1.51"/><path d="M693,-20L573,110L746,131Z" fill="#d3d3d3" stroke="#d3d3d3" stroke-width="1.51"/><path d="M2502,-58L2477,-246L2246,-223Z" fill="#c3c3c3" stroke="#c3c3c3" stroke-width="1.51"/><path d="M2246,-223L2604,-313L1668,-286Z" fill="#bfbfbf" stroke="#bfbfbf" stroke-width="1.51"/><path d="M2735,-55L2502,-58L2602,91Z" fill="#c6c6c6" stroke="#c6c6c6" stroke-width="1.51"/><path d="M2993,652L3026,422L2841,651Z" fill="#a8a8a8" stroke="#a8a8a8" stroke-width="1.51"/><path d="M3002,1049L3087,730L2884,857Z" fill="#979797" stroke="#979797" stroke-width="1.51"/><path d="M3316,1052L3087,730L3002,1049Z" fill="#939393" stroke="#939393" stroke-width="1.51"/><path d="M3107,1365L3092,1157L2913,1240Z" fill="#969696" stroke="#969696" stroke-width="1.51"/><path d="M3107,1365L2913,1240L2953,1371Z" fill="#979797" stroke="#979797" stroke-width="1.51"/><path d="M2901,124L2735,-55L2602,91Z" fill="#c5c5c5" stroke="#c5c5c5" stroke-width="1.51"/><path d="M3212,632L3026,422L2993,652Z" fill="#a9a9a9" stroke="#a9a9a9" stroke-width="1.51"/><path d="M260,1005L320,1194L561,986Z" fill="#a7a7a7" stroke="#a7a7a7" stroke-width="1.51"/><path d="M402,1912L623,1868L560,1684Z" fill="#b2b2b2" stroke="#b2b2b2" stroke-width="1.51"/><path d="M2901,124L2602,91L2907,369Z" fill="#bdbdbd" stroke="#bdbdbd" stroke-width="1.51"/><path d="M1325,2183L1645,2334L1461,2138Z" fill="#919191" stroke="#919191" stroke-width="1.51"/><path d="M1131,2230L1645,2334L1325,2183Z" fill="#959595" stroke="#959595" stroke-width="1.51"/><path d="M1131,2230L1228,2002L938,2020Z" fill="#a0a0a0" stroke="#a0a0a0" stroke-width="1.51"/><path d="M3112,147L2901,124L2907,369Z" fill="#bebebe" stroke="#bebebe" stroke-width="1.51"/><path d="M978,2301L1131,2230L938,2020Z" fill="#a3a3a3" stroke="#a3a3a3" stroke-width="1.51"/><path d="M560,1684L623,1868L817,1696Z" fill="#ababab" stroke="#ababab" stroke-width="1.51"/><path d="M686,2336L978,2301L938,2020Z" fill="#a9a9a9" stroke="#a9a9a9" stroke-width="1.51"/><path d="M289,1573L463,1400L408,1360Z" fill="#b0b0b0" stroke="#b0b0b0" stroke-width="1.51"/><path d="M196,789L336,855L371,671Z" fill="#b7b7b7" stroke="#b7b7b7" stroke-width="1.51"/><path d="M336,855L260,1005L561,986Z" fill="#a9a9a9" stroke="#a9a9a9" stroke-width="1.51"/><path d="M2524,2281L2609,2074L2512,2022Z" fill="#9f9f9f" stroke="#9f9f9f" stroke-width="1.51"/><path d="M2512,2022L2609,2074L2708,1837Z" fill="#a0a0a0" stroke="#a0a0a0" stroke-width="1.51"/><path d="M3106,1681L3107,1365L2953,1371Z" fill="#9a9a9a" stroke="#9a9a9a" stroke-width="1.51"/><path d="M3360,834L3212,632L3087,730Z" fill="#a0a0a0" stroke="#a0a0a0" stroke-width="1.51"/><path d="M2949,1704L2659,1699L2708,1837Z" fill="#9d9d9d" stroke="#9d9d9d" stroke-width="1.51"/><path d="M2950,1885L2949,1704L2708,1837Z" fill="#a0a0a0" stroke="#a0a0a0" stroke-width="1.51"/><path d="M1043,-301L795,-273L1044,-47Z" fill="#cbcbcb" stroke="#cbcbcb" stroke-width="1.51"/><path d="M499,-48L418,102L573,110Z" fill="#dbdbdb" stroke="#dbdbdb" stroke-width="1.51"/><path d="M2901,124L2776,-130L2735,-55Z" fill="#c9c9c9" stroke="#c9c9c9" stroke-width="1.51"/><path d="M2735,-55L2604,-313L2502,-58Z" fill="#c6c6c6" stroke="#c6c6c6" stroke-width="1.51"/><path d="M115,594L196,789L371,671Z" fill="#bfbfbf" stroke="#bfbfbf" stroke-width="1.51"/><path d="M160,454L371,671L408,444Z" fill="#c5c5c5" stroke="#c5c5c5" stroke-width="1.51"/><path d="M573,110L418,102L589,302Z" fill="#d2d2d2" stroke="#d2d2d2" stroke-width="1.51"/><path d="M499,-48L573,110L693,-20Z" fill="#d9d9d9" stroke="#d9d9d9" stroke-width="1.51"/><path d="M2477,-246L2604,-313L2246,-223Z" fill="#c3c3c3" stroke="#c3c3c3" stroke-width="1.51"/><path d="M1668,-286L2604,-313L1043,-301Z" fill="#b9b9b9" stroke="#b9b9b9" stroke-width="1.51"/><path d="M2776,-130L2604,-313L2735,-55Z" fill="#c7c7c7" stroke="#c7c7c7" stroke-width="1.51"/><path d="M3087,730L3212,632L2993,652Z" fill="#a3a3a3" stroke="#a3a3a3" stroke-width="1.51"/><path d="M3026,422L3112,147L2907,369Z" fill="#b9b9b9" stroke="#b9b9b9" stroke-width="1.51"/><path d="M2901,124L2923,-213L2776,-130Z" fill="#cacaca" stroke="#cacaca" stroke-width="1.51"/><path d="M3316,1052L3002,1049L3092,1157Z" fill="#929292" stroke="#929292" stroke-width="1.51"/><path d="M795,-273L613,-170L693,-20Z" fill="#d6d6d6" stroke="#d6d6d6" stroke-width="1.51"/><path d="M613,-170L499,-48L693,-20Z" fill="#dadada" stroke="#dadada" stroke-width="1.51"/><path d="M260,1005L168,1039L320,1194Z" fill="#adadad" stroke="#adadad" stroke-width="1.51"/><path d="M114,1340L289,1573L408,1360Z" fill="#b4b4b4" stroke="#b4b4b4" stroke-width="1.51"/><path d="M196,789L168,1039L260,1005Z" fill="#b0b0b0" stroke="#b0b0b0" stroke-width="1.51"/><path d="M114,1340L408,1360L320,1194Z" fill="#b1b1b1" stroke="#b1b1b1" stroke-width="1.51"/><path d="M596,2109L798,1961L623,1868Z" fill="#b0b0b0" stroke="#b0b0b0" stroke-width="1.51"/><path d="M686,2336L938,2020L798,1961Z" fill="#ababab" stroke="#ababab" stroke-width="1.51"/><path d="M1131,2230L978,2301L1645,2334Z" fill="#9a9a9a" stroke="#9a9a9a" stroke-width="1.51"/><path d="M2949,1704L3106,1681L2953,1371Z" fill="#9d9d9d" stroke="#9d9d9d" stroke-width="1.51"/><path d="M2987,2059L2950,1885L2953,2102Z" fill="#a5a5a5" stroke="#a5a5a5" stroke-width="1.51"/><path d="M2953,2102L2950,1885L2708,1837Z" fill="#a2a2a2" stroke="#a2a2a2" stroke-width="1.51"/><path d="M2203,2196L2524,2281L2512,2022Z" fill="#9d9d9d" stroke="#9d9d9d" stroke-width="1.51"/><path d="M1645,2334L2524,2281L2203,2196Z" fill="#999999" stroke="#999999" stroke-width="1.51"/><path d="M3107,1365L3276,1191L3092,1157Z" fill="#959595" stroke="#959595" stroke-width="1.51"/><path d="M3371,1438L3276,1191L3107,1365Z" fill="#979797" stroke="#979797" stroke-width="1.51"/><path d="M3095,1874L3106,1681L2949,1704Z" fill="#a0a0a0" stroke="#a0a0a0" stroke-width="1.51"/><path d="M2776,-130L2923,-213L2604,-313Z" fill="#c8c8c8" stroke="#c8c8c8" stroke-width="1.51"/><path d="M3263,333L3112,147L3026,422Z" fill="#b9b9b9" stroke="#b9b9b9" stroke-width="1.51"/><path d="M196,789L-115,869L168,1039Z" fill="#b8b8b8" stroke="#b8b8b8" stroke-width="1.51"/><path d="M209,100L160,454L408,444Z" fill="#d3d3d3" stroke="#d3d3d3" stroke-width="1.51"/><path d="M209,100L408,444L418,102Z" fill="#d7d7d7" stroke="#d7d7d7" stroke-width="1.51"/><path d="M3276,1191L3316,1052L3092,1157Z" fill="#939393" stroke="#939393" stroke-width="1.51"/><path d="M3212,632L3263,333L3026,422Z" fill="#b0b0b0" stroke="#b0b0b0" stroke-width="1.51"/><path d="M160,454L115,594L371,671Z" fill="#c6c6c6" stroke="#c6c6c6" stroke-width="1.51"/><path d="M402,1912L596,2109L623,1868Z" fill="#b5b5b5" stroke="#b5b5b5" stroke-width="1.51"/><path d="M289,1573L402,1912L560,1684Z" fill="#b5b5b5" stroke="#b5b5b5" stroke-width="1.51"/><path d="M168,1039L102,1290L320,1194Z" fill="#b1b1b1" stroke="#b1b1b1" stroke-width="1.51"/><path d="M289,1573L129,1637L402,1912Z" fill="#bababa" stroke="#bababa" stroke-width="1.51"/><path d="M-37,1295L102,1290L168,1039Z" fill="#b7b7b7" stroke="#b7b7b7" stroke-width="1.51"/><path d="M102,1290L114,1340L320,1194Z" fill="#b4b4b4" stroke="#b4b4b4" stroke-width="1.51"/><path d="M3316,1052L3360,834L3087,730Z" fill="#979797" stroke="#979797" stroke-width="1.51"/><path d="M3126,-48L2923,-213L2901,124Z" fill="#cccccc" stroke="#cccccc" stroke-width="1.51"/><path d="M3112,147L3126,-48L2901,124Z" fill="#c7c7c7" stroke="#c7c7c7" stroke-width="1.51"/><path d="M3360,834L3263,333L3212,632Z" fill="#a7a7a7" stroke="#a7a7a7" stroke-width="1.51"/><path d="M2950,1885L3095,1874L2949,1704Z" fill="#a2a2a2" stroke="#a2a2a2" stroke-width="1.51"/><path d="M3106,1681L3371,1438L3107,1365Z" fill="#9b9b9b" stroke="#9b9b9b" stroke-width="1.51"/><path d="M3276,1191L3371,1438L3316,1052Z" fill="#959595" stroke="#959595" stroke-width="1.51"/><path d="M2987,2059L3095,1874L2950,1885Z" fill="#a4a4a4" stroke="#a4a4a4" stroke-width="1.51"/><path d="M297,-107L209,100L418,102Z" fill="#e4e4e4" stroke="#e4e4e4" stroke-width="1.51"/><path d="M-210,431L-68,661L115,594Z" fill="#d0d0d0" stroke="#d0d0d0" stroke-width="1.51"/><path d="M297,-107L418,102L499,-48Z" fill="#e2e2e2" stroke="#e2e2e2" stroke-width="1.51"/><path d="M3223,-34L3126,-48L3112,147Z" fill="#cacaca" stroke="#cacaca" stroke-width="1.51"/><path d="M2953,2102L2708,1837L2609,2074Z" fill="#a2a2a2" stroke="#a2a2a2" stroke-width="1.51"/><path d="M2885,2232L2953,2102L2609,2074Z" fill="#a3a3a3" stroke="#a3a3a3" stroke-width="1.51"/><path d="M2524,2281L2739,2298L2609,2074Z" fill="#a0a0a0" stroke="#a0a0a0" stroke-width="1.51"/><path d="M1645,2334L2739,2298L2524,2281Z" fill="#9c9c9c" stroke="#9c9c9c" stroke-width="1.51"/><path d="M-72,1359L129,1637L114,1340Z" fill="#bdbdbd" stroke="#bdbdbd" stroke-width="1.51"/><path d="M114,1340L129,1637L289,1573Z" fill="#bababa" stroke="#bababa" stroke-width="1.51"/><path d="M471,2207L686,2336L596,2109Z" fill="#b4b4b4" stroke="#b4b4b4" stroke-width="1.51"/><path d="M3263,333L3258,147L3112,147Z" fill="#bfbfbf" stroke="#bfbfbf" stroke-width="1.51"/><path d="M3360,834L3258,147L3263,333Z" fill="#b1b1b1" stroke="#b1b1b1" stroke-width="1.51"/><path d="M397,-298L297,-107L499,-48Z" fill="#e2e2e2" stroke="#e2e2e2" stroke-width="1.51"/><path d="M397,-298L499,-48L613,-170Z" fill="#dedede" stroke="#dedede" stroke-width="1.51"/><path d="M3316,1052L3371,1438L3360,834Z" fill="#939393" stroke="#939393" stroke-width="1.51"/><path d="M3375,1702L3371,1438L3106,1681Z" fill="#9d9d9d" stroke="#9d9d9d" stroke-width="1.51"/><path d="M3212,1810L3106,1681L3095,1874Z" fill="#a1a1a1" stroke="#a1a1a1" stroke-width="1.51"/><path d="M596,2109L686,2336L798,1961Z" fill="#b0b0b0" stroke="#b0b0b0" stroke-width="1.51"/><path d="M978,2301L686,2336L1645,2334Z" fill="#9f9f9f" stroke="#9f9f9f" stroke-width="1.51"/><path d="M378,2111L596,2109L402,1912Z" fill="#b9b9b9" stroke="#b9b9b9" stroke-width="1.51"/><path d="M3257,2047L3212,1810L3095,1874Z" fill="#a4a4a4" stroke="#a4a4a4" stroke-width="1.51"/><path d="M3375,1702L3212,1810L3257,2047Z" fill="#a3a3a3" stroke="#a3a3a3" stroke-width="1.51"/><path d="M2739,2298L2885,2232L2609,2074Z" fill="#a2a2a2" stroke="#a2a2a2" stroke-width="1.51"/><path d="M2953,2102L2998,2290L2987,2059Z" fill="#a5a5a5" stroke="#a5a5a5" stroke-width="1.51"/><path d="M-57,-347L397,-298L1043,-301Z" fill="#e0e0e0" stroke="#e0e0e0" stroke-width="1.51"/><path d="M1043,-301L397,-298L795,-273Z" fill="#d4d4d4" stroke="#d4d4d4" stroke-width="1.51"/><path d="M795,-273L397,-298L613,-170Z" fill="#dadada" stroke="#dadada" stroke-width="1.51"/><path d="M102,1290L-37,1295L114,1340Z" fill="#bababa" stroke="#bababa" stroke-width="1.51"/><path d="M-148,912L-37,1295L168,1039Z" fill="#b7b7b7" stroke="#b7b7b7" stroke-width="1.51"/><path d="M-68,661L196,789L115,594Z" fill="#c5c5c5" stroke="#c5c5c5" stroke-width="1.51"/><path d="M177,2092L378,2111L402,1912Z" fill="#bfbfbf" stroke="#bfbfbf" stroke-width="1.51"/><path d="M378,2111L471,2207L596,2109Z" fill="#b8b8b8" stroke="#b8b8b8" stroke-width="1.51"/><path d="M-95,298L115,594L160,454Z" fill="#d4d4d4" stroke="#d4d4d4" stroke-width="1.51"/><path d="M-95,298L160,454L209,100Z" fill="#dddddd" stroke="#dddddd" stroke-width="1.51"/><path d="M3258,147L3223,-34L3112,147Z" fill="#c6c6c6" stroke="#c6c6c6" stroke-width="1.51"/><path d="M3126,-48L3088,-250L2923,-213Z" fill="#cccccc" stroke="#cccccc" stroke-width="1.51"/><path d="M3281,-257L3088,-250L3126,-48Z" fill="#cccccc" stroke="#cccccc" stroke-width="1.51"/><path d="M2923,-213L3088,-250L2604,-313Z" fill="#cacaca" stroke="#cacaca" stroke-width="1.51"/><path d="M-68,661L-115,869L196,789Z" fill="#c3c3c3" stroke="#c3c3c3" stroke-width="1.51"/><path d="M-37,1295L-72,1359L114,1340Z" fill="#bdbdbd" stroke="#bdbdbd" stroke-width="1.51"/><path d="M177,2092L387,2189L378,2111Z" fill="#bfbfbf" stroke="#bfbfbf" stroke-width="1.51"/><path d="M-312,1380L-72,1359L-37,1295Z" fill="#bdbdbd" stroke="#bdbdbd" stroke-width="1.51"/><path d="M378,2111L387,2189L471,2207Z" fill="#bbbbbb" stroke="#bbbbbb" stroke-width="1.51"/><path d="M471,2207L77,2274L686,2336Z" fill="#bbbbbb" stroke="#bbbbbb" stroke-width="1.51"/><path d="M61,1869L402,1912L129,1637Z" fill="#bfbfbf" stroke="#bfbfbf" stroke-width="1.51"/><path d="M297,-107L133,-45L209,100Z" fill="#eaeaea" stroke="#eaeaea" stroke-width="1.51"/><path d="M115,-203L133,-45L297,-107Z" fill="#ebebeb" stroke="#ebebeb" stroke-width="1.51"/><path d="M3257,2047L3095,1874L2987,2059Z" fill="#a6a6a6" stroke="#a6a6a6" stroke-width="1.51"/><path d="M3212,1810L3375,1702L3106,1681Z" fill="#a0a0a0" stroke="#a0a0a0" stroke-width="1.51"/><path d="M-115,869L-148,912L168,1039Z" fill="#b9b9b9" stroke="#b9b9b9" stroke-width="1.51"/><path d="M-256,821L-148,912L-115,869Z" fill="#bdbdbd" stroke="#bdbdbd" stroke-width="1.51"/><path d="M-256,821L-115,869L-68,661Z" fill="#c2c2c2" stroke="#c2c2c2" stroke-width="1.51"/><path d="M2885,2232L2998,2290L2953,2102Z" fill="#a5a5a5" stroke="#a5a5a5" stroke-width="1.51"/><path d="M2739,2298L2998,2290L2885,2232Z" fill="#a4a4a4" stroke="#a4a4a4" stroke-width="1.51"/><path d="M3214,2322L2998,2290L2739,2298Z" fill="#a6a6a6" stroke="#a6a6a6" stroke-width="1.51"/><path d="M-66,124L-95,298L209,100Z" fill="#e7e7e7" stroke="#e7e7e7" stroke-width="1.51"/><path d="M0,1768L61,1869L129,1637Z" fill="#c4c4c4" stroke="#c4c4c4" stroke-width="1.51"/><path d="M-113,1614L0,1768L129,1637Z" fill="#c5c5c5" stroke="#c5c5c5" stroke-width="1.51"/><path d="M3214,2322L3257,2047L2987,2059Z" fill="#a6a6a6" stroke="#a6a6a6" stroke-width="1.51"/><path d="M77,2274L177,2092L-27,2224Z" fill="#c9c9c9" stroke="#c9c9c9" stroke-width="1.51"/><path d="M61,1869L177,2092L402,1912Z" fill="#c2c2c2" stroke="#c2c2c2" stroke-width="1.51"/><path d="M387,2189L77,2274L471,2207Z" fill="#bfbfbf" stroke="#bfbfbf" stroke-width="1.51"/><path d="M133,-45L-66,124L209,100Z" fill="#ebebeb" stroke="#ebebeb" stroke-width="1.51"/><path d="M-72,27L-66,124L133,-45Z" fill="#f1f1f1" stroke="#f1f1f1" stroke-width="1.51"/><path d="M397,-298L115,-203L297,-107Z" fill="#e7e7e7" stroke="#e7e7e7" stroke-width="1.51"/><path d="M0,1768L-209,1802L61,1869Z" fill="#c8c8c8" stroke="#c8c8c8" stroke-width="1.51"/><path d="M-72,1359L-113,1614L129,1637Z" fill="#c1c1c1" stroke="#c1c1c1" stroke-width="1.51"/><path d="M-312,1380L-113,1614L-72,1359Z" fill="#bfbfbf" stroke="#bfbfbf" stroke-width="1.51"/><path d="M-148,912L-374,1149L-37,1295Z" fill="#b8b8b8" stroke="#b8b8b8" stroke-width="1.51"/><path d="M-210,431L-223,579L-68,661Z" fill="#d0d0d0" stroke="#d0d0d0" stroke-width="1.51"/><path d="M-210,431L115,594L-95,298Z" fill="#d7d7d7" stroke="#d7d7d7" stroke-width="1.51"/><path d="M-223,579L-256,821L-68,661Z" fill="#c8c8c8" stroke="#c8c8c8" stroke-width="1.51"/><path d="M3223,-34L3281,-257L3126,-48Z" fill="#cccccc" stroke="#cccccc" stroke-width="1.51"/><path d="M3088,-250L3281,-257L2604,-313Z" fill="#cccccc" stroke="#cccccc" stroke-width="1.51"/><path d="M3258,147L3281,-257L3223,-34Z" fill="#cccccc" stroke="#cccccc" stroke-width="1.51"/><path d="M3360,834L3281,-257L3258,147Z" fill="#bdbdbd" stroke="#bdbdbd" stroke-width="1.51"/><path d="M-223,579L-358,1005L-256,821Z" fill="#c1c1c1" stroke="#c1c1c1" stroke-width="1.51"/><path d="M-326,162L-210,431L-95,298Z" fill="#e0e0e0" stroke="#e0e0e0" stroke-width="1.51"/><path d="M-66,124L-326,162L-95,298Z" fill="#e7e7e7" stroke="#e7e7e7" stroke-width="1.51"/><path d="M115,-203L-72,27L133,-45Z" fill="#f0f0f0" stroke="#f0f0f0" stroke-width="1.51"/><path d="M-326,162L-358,1005L-223,579Z" fill="#cecece" stroke="#cecece" stroke-width="1.51"/><path d="M-256,821L-358,1005L-148,912Z" fill="#bababa" stroke="#bababa" stroke-width="1.51"/><path d="M3257,2047L3214,2322L3375,1702Z" fill="#a6a6a6" stroke="#a6a6a6" stroke-width="1.51"/><path d="M2998,2290L3214,2322L2987,2059Z" fill="#a6a6a6" stroke="#a6a6a6" stroke-width="1.51"/><path d="M1645,2334L3214,2322L2739,2298Z" fill="#9f9f9f" stroke="#9f9f9f" stroke-width="1.51"/><path d="M-374,1149L-312,1380L-37,1295Z" fill="#bcbcbc" stroke="#bcbcbc" stroke-width="1.51"/><path d="M-113,1614L-209,1802L0,1768Z" fill="#c6c6c6" stroke="#c6c6c6" stroke-width="1.51"/><path d="M-358,1005L-374,1149L-148,912Z" fill="#b6b6b6" stroke="#b6b6b6" stroke-width="1.51"/><path d="M-287,1620L-113,1614L-312,1380Z" fill="#c1c1c1" stroke="#c1c1c1" stroke-width="1.51"/><path d="M-287,1620L-209,1802L-113,1614Z" fill="#c5c5c5" stroke="#c5c5c5" stroke-width="1.51"/><path d="M-374,1149L-287,1620L-312,1380Z" fill="#bebebe" stroke="#bebebe" stroke-width="1.51"/><path d="M-27,2224L177,2092L-157,2053Z" fill="#cccccc" stroke="#cccccc" stroke-width="1.51"/><path d="M177,2092L77,2274L387,2189Z" fill="#c3c3c3" stroke="#c3c3c3" stroke-width="1.51"/><path d="M-303,-114L-326,162L-72,27Z" fill="#f1f1f1" stroke="#f1f1f1" stroke-width="1.51"/><path d="M-72,27L-326,162L-66,124Z" fill="#ececec" stroke="#ececec" stroke-width="1.51"/><path d="M-210,431L-326,162L-223,579Z" fill="#dadada" stroke="#dadada" stroke-width="1.51"/><path d="M-358,1005L-326,162L-374,1149Z" fill="#c3c3c3" stroke="#c3c3c3" stroke-width="1.51"/><path d="M115,-203L-57,-347L-72,27Z" fill="#f3f3f3" stroke="#f3f3f3" stroke-width="1.51"/><path d="M397,-298L-57,-347L115,-203Z" fill="#ececec" stroke="#ececec" stroke-width="1.51"/><path d="M2604,-313L-57,-347L1043,-301Z" fill="#c1c1c1" stroke="#c1c1c1" stroke-width="1.51"/><path d="M-157,2053L177,2092L61,1869Z" fill="#cbcbcb" stroke="#cbcbcb" stroke-width="1.51"/><path d="M-209,1802L-157,2053L61,1869Z" fill="#cacaca" stroke="#cacaca" stroke-width="1.51"/><path d="M-223,2129L-157,2053L-209,1802Z" fill="#cccccc" stroke="#cccccc" stroke-width="1.51"/><path d="M-57,-347L-303,-114L-72,27Z" fill="#f3f3f3" stroke="#f3f3f3" stroke-width="1.51"/><path d="M-287,1620L-223,2129L-209,1802Z" fill="#c8c8c8" stroke="#c8c8c8" stroke-width="1.51"/><path d="M-157,2053L-223,2129L-27,2224Z" fill="#cccccc" stroke="#cccccc" stroke-width="1.51"/><path d="M-238,2211L-223,2129L-287,1620Z" fill="#cbcbcb" stroke="#cbcbcb" stroke-width="1.51"/><path d="M-57,-347L-255,-345L-303,-114Z" fill="#f3f3f3" stroke="#f3f3f3" stroke-width="1.51"/><path d="M-223,2129L-238,2211L-27,2224Z" fill="#cccccc" stroke="#cccccc" stroke-width="1.51"/><path d="M-27,2224L-238,2211L77,2274Z" fill="#cccccc" stroke="#cccccc" stroke-width="1.51"/><path d="M-374,1149L-238,2211L-287,1620Z" fill="#c4c4c4" stroke="#c4c4c4" stroke-width="1.51"/></svg>