<svg xmlns="http://www.w3.org/2000/svg" width="3840" height="3840"><path d="M1905,1826L1917,2326L2328,1922Z" fill="#f7cb9b" stroke="#f7cb9b" stroke-width="1.51"/><path d="M1917,2326L2407,2454L2328,1922Z" fill="#eabc97" stroke="#eabc97" stroke-width="1.51"/><path d="M1905,1826L1465,1994L1917,2326Z" fill="#f8cd9c" stroke="#f8cd9c" stroke-width="1.51"/><path d="M2407,2454L2712,1959L2328,1922Z" fill="#e5b797" stroke="#e5b797" stroke-width="1.51"/><path d="M2217,1343L1791,1399L1905,1826Z" fill="#f6ce9f" stroke="#f6ce9f" stroke-width="1.51"/><path d="M1917,2326L1978,2717L2407,2454Z" fill="#e5b696" stroke="#e5b696" stroke-width="1.51"/><path d="M1651,2684L1978,2717L1917,2326Z" fill="#e7ba98" stroke="#e7ba98" stroke-width="1.51"/><path d="M2407,2454L2861,2365L2712,1959Z" fill="#daaa93" stroke="#daaa93" stroke-width="1.51"/><path d="M1978,2717L2468,2615L2407,2454Z" fill="#dcac93" stroke="#dcac93" stroke-width="1.51"/><path d="M1465,1994L1427,2403L1917,2326Z" fill="#eec49b" stroke="#eec49b" stroke-width="1.51"/><path d="M2217,1343L1905,1826L2328,1922Z" fill="#f3c89c" stroke="#f3c89c" stroke-width="1.51"/><path d="M1905,1826L1791,1399L1465,1994Z" fill="#f8d09f" stroke="#f8d09f" stroke-width="1.51"/><path d="M1427,2403L1651,2684L1917,2326Z" fill="#e8bc99" stroke="#e8bc99" stroke-width="1.51"/><path d="M2653,1557L2217,1343L2328,1922Z" fill="#e9be9a" stroke="#e9be9a" stroke-width="1.51"/><path d="M2712,1959L2653,1557L2328,1922Z" fill="#e7ba98" stroke="#e7ba98" stroke-width="1.51"/><path d="M2804,2604L2861,2365L2407,2454Z" fill="#d2a191" stroke="#d2a191" stroke-width="1.51"/><path d="M2712,1959L3032,1844L2653,1557Z" fill="#dfb195" stroke="#dfb195" stroke-width="1.51"/><path d="M1791,1399L1636,1339L1465,1994Z" fill="#f2cda0" stroke="#f2cda0" stroke-width="1.51"/><path d="M1939,1202L1636,1339L1791,1399Z" fill="#f0cca1" stroke="#f0cca1" stroke-width="1.51"/><path d="M2196,957L1939,1202L2217,1343Z" fill="#e9c59f" stroke="#e9c59f" stroke-width="1.51"/><path d="M2217,1343L1939,1202L1791,1399Z" fill="#f1cba0" stroke="#f1cba0" stroke-width="1.51"/><path d="M2793,3180L2804,2604L2468,2615Z" fill="#c8958e" stroke="#c8958e" stroke-width="1.51"/><path d="M2468,2615L2804,2604L2407,2454Z" fill="#d4a391" stroke="#d4a391" stroke-width="1.51"/><path d="M1465,1994L1036,2263L1427,2403Z" fill="#e9c29d" stroke="#e9c29d" stroke-width="1.51"/><path d="M1636,1339L1201,1815L1465,1994Z" fill="#f1cda0" stroke="#f1cda0" stroke-width="1.51"/><path d="M3285,2682L3025,2199L2861,2365Z" fill="#c8968e" stroke="#c8968e" stroke-width="1.51"/><path d="M2861,2365L3025,2199L2712,1959Z" fill="#d7a692" stroke="#d7a692" stroke-width="1.51"/><path d="M3025,2199L3032,1844L2712,1959Z" fill="#dbaa93" stroke="#dbaa93" stroke-width="1.51"/><path d="M1978,2717L2238,3071L2468,2615Z" fill="#d7a692" stroke="#d7a692" stroke-width="1.51"/><path d="M1862,3073L2238,3071L1978,2717Z" fill="#d9a892" stroke="#d9a892" stroke-width="1.51"/><path d="M1651,2684L1862,3073L1978,2717Z" fill="#dfb095" stroke="#dfb095" stroke-width="1.51"/><path d="M1537,3055L1862,3073L1651,2684Z" fill="#d8ab95" stroke="#d8ab95" stroke-width="1.51"/><path d="M1427,2403L1210,2665L1651,2684Z" fill="#dfb599" stroke="#dfb599" stroke-width="1.51"/><path d="M1036,2263L1210,2665L1427,2403Z" fill="#dfb99b" stroke="#dfb99b" stroke-width="1.51"/><path d="M1201,1815L1036,2263L1465,1994Z" fill="#eec99f" stroke="#eec99f" stroke-width="1.51"/><path d="M2653,1557L2733,1206L2217,1343Z" fill="#dfb79a" stroke="#dfb79a" stroke-width="1.51"/><path d="M3226,1367L2733,1206L2653,1557Z" fill="#d4aa97" stroke="#d4aa97" stroke-width="1.51"/><path d="M1210,2665L1537,3055L1651,2684Z" fill="#d8ae97" stroke="#d8ae97" stroke-width="1.51"/><path d="M2733,1206L2196,957L2217,1343Z" fill="#e0bb9c" stroke="#e0bb9c" stroke-width="1.51"/><path d="M1939,1202L1657,921L1636,1339Z" fill="#eccaa2" stroke="#eccaa2" stroke-width="1.51"/><path d="M1636,1339L938,1346L1201,1815Z" fill="#e9c8a2" stroke="#e9c8a2" stroke-width="1.51"/><path d="M2196,957L1657,921L1939,1202Z" fill="#eccaa1" stroke="#eccaa1" stroke-width="1.51"/><path d="M2238,3071L2793,3180L2468,2615Z" fill="#c9968e" stroke="#c9968e" stroke-width="1.51"/><path d="M2804,2604L3285,2682L2861,2365Z" fill="#c6938d" stroke="#c6938d" stroke-width="1.51"/><path d="M2454,3553L2793,3180L2238,3071Z" fill="#be8b8b" stroke="#be8b8b" stroke-width="1.51"/><path d="M1902,3477L2238,3071L1862,3073Z" fill="#d1a090" stroke="#d1a090" stroke-width="1.51"/><path d="M927,1174L938,1346L1636,1339Z" fill="#e3c5a4" stroke="#e3c5a4" stroke-width="1.51"/><path d="M624,1936L740,2390L1036,2263Z" fill="#debea0" stroke="#debea0" stroke-width="1.51"/><path d="M3032,1844L3226,1367L2653,1557Z" fill="#d5a895" stroke="#d5a895" stroke-width="1.51"/><path d="M2733,1206L2437,764L2196,957Z" fill="#dab69c" stroke="#dab69c" stroke-width="1.51"/><path d="M3606,1871L3226,1367L3032,1844Z" fill="#cd9d91" stroke="#cd9d91" stroke-width="1.51"/><path d="M3606,1871L3032,1844L3025,2199Z" fill="#d2a091" stroke="#d2a091" stroke-width="1.51"/><path d="M2793,3180L3285,2682L2804,2604Z" fill="#be8a8b" stroke="#be8a8b" stroke-width="1.51"/><path d="M1760,689L1506,779L1657,921Z" fill="#e2c5a4" stroke="#e2c5a4" stroke-width="1.51"/><path d="M2902,536L2437,764L2733,1206Z" fill="#cfac9b" stroke="#cfac9b" stroke-width="1.51"/><path d="M1036,2263L740,2390L1210,2665Z" fill="#dbb79c" stroke="#dbb79c" stroke-width="1.51"/><path d="M1210,2665L1216,3181L1537,3055Z" fill="#d0a696" stroke="#d0a696" stroke-width="1.51"/><path d="M624,1936L1036,2263L1201,1815Z" fill="#e8c6a1" stroke="#e8c6a1" stroke-width="1.51"/><path d="M750,2707L1216,3181L1210,2665Z" fill="#cea798" stroke="#cea798" stroke-width="1.51"/><path d="M1537,3055L1902,3477L1862,3073Z" fill="#d1a191" stroke="#d1a191" stroke-width="1.51"/><path d="M1657,921L1506,779L1636,1339Z" fill="#e6c7a3" stroke="#e6c7a3" stroke-width="1.51"/><path d="M1760,689L1657,921L2196,957Z" fill="#e8c8a2" stroke="#e8c8a2" stroke-width="1.51"/><path d="M1464,3718L1902,3477L1537,3055Z" fill="#c79890" stroke="#c79890" stroke-width="1.51"/><path d="M2437,764L1760,689L2196,957Z" fill="#e1c1a0" stroke="#e1c1a0" stroke-width="1.51"/><path d="M938,1346L624,1936L1201,1815Z" fill="#e6c7a3" stroke="#e6c7a3" stroke-width="1.51"/><path d="M938,1346L610,1348L624,1936Z" fill="#dec3a4" stroke="#dec3a4" stroke-width="1.51"/><path d="M1506,779L927,1174L1636,1339Z" fill="#e3c5a3" stroke="#e3c5a3" stroke-width="1.51"/><path d="M200,2668L750,2707L740,2390Z" fill="#cdad9d" stroke="#cdad9d" stroke-width="1.51"/><path d="M740,2390L750,2707L1210,2665Z" fill="#d4b09b" stroke="#d4b09b" stroke-width="1.51"/><path d="M3226,1367L3215,1100L2733,1206Z" fill="#cba295" stroke="#cba295" stroke-width="1.51"/><path d="M3743,1099L3215,1100L3226,1367Z" fill="#bf9492" stroke="#bf9492" stroke-width="1.51"/><path d="M1902,3477L2454,3553L2238,3071Z" fill="#c5928c" stroke="#c5928c" stroke-width="1.51"/><path d="M3676,2915L3674,2419L3285,2682Z" fill="#b07a86" stroke="#b07a86" stroke-width="1.51"/><path d="M3674,2419L3606,1871L3025,2199Z" fill="#c4918d" stroke="#c4918d" stroke-width="1.51"/><path d="M927,1174L610,1348L938,1346Z" fill="#dbc2a5" stroke="#dbc2a5" stroke-width="1.51"/><path d="M654,1131L610,1348L927,1174Z" fill="#d8c1a5" stroke="#d8c1a5" stroke-width="1.51"/><path d="M3285,2682L3674,2419L3025,2199Z" fill="#bf8b8b" stroke="#bf8b8b" stroke-width="1.51"/><path d="M3199,3344L3285,2682L2793,3180Z" fill="#b27c86" stroke="#b27c86" stroke-width="1.51"/><path d="M2908,3666L3199,3344L2793,3180Z" fill="#ab7485" stroke="#ab7485" stroke-width="1.51"/><path d="M769,666L654,1131L927,1174Z" fill="#d4bfa6" stroke="#d4bfa6" stroke-width="1.51"/><path d="M3925,1920L3713,1477L3606,1871Z" fill="#be8d8c" stroke="#be8d8c" stroke-width="1.51"/><path d="M3606,1871L3713,1477L3226,1367Z" fill="#c3948f" stroke="#c3948f" stroke-width="1.51"/><path d="M3240,651L2902,536L3215,1100Z" fill="#bf9a96" stroke="#bf9a96" stroke-width="1.51"/><path d="M3215,1100L2902,536L2733,1206Z" fill="#c9a397" stroke="#c9a397" stroke-width="1.51"/><path d="M2437,764L1918,209L1760,689Z" fill="#dfc1a2" stroke="#dfc1a2" stroke-width="1.51"/><path d="M1902,3477L2438,4029L2454,3553Z" fill="#b88489" stroke="#b88489" stroke-width="1.51"/><path d="M1216,3181L1464,3718L1537,3055Z" fill="#c69992" stroke="#c69992" stroke-width="1.51"/><path d="M1124,3564L1464,3718L1216,3181Z" fill="#be9291" stroke="#be9291" stroke-width="1.51"/><path d="M664,3200L1124,3564L1216,3181Z" fill="#be9594" stroke="#be9594" stroke-width="1.51"/><path d="M624,1936L194,2196L740,2390Z" fill="#dabca1" stroke="#dabca1" stroke-width="1.51"/><path d="M750,2707L664,3200L1216,3181Z" fill="#c59f97" stroke="#c59f97" stroke-width="1.51"/><path d="M286,1380L286,1935L624,1936Z" fill="#dcc2a5" stroke="#dcc2a5" stroke-width="1.51"/><path d="M286,1380L624,1936L610,1348Z" fill="#dac1a5" stroke="#dac1a5" stroke-width="1.51"/><path d="M2616,4024L2908,3666L2454,3553Z" fill="#aa7384" stroke="#aa7384" stroke-width="1.51"/><path d="M2454,3553L2908,3666L2793,3180Z" fill="#b17b86" stroke="#b17b86" stroke-width="1.51"/><path d="M200,2668L664,3200L750,2707Z" fill="#c3a29a" stroke="#c3a29a" stroke-width="1.51"/><path d="M1506,779L1126,531L927,1174Z" fill="#d9c1a6" stroke="#d9c1a6" stroke-width="1.51"/><path d="M1378,253L1126,531L1506,779Z" fill="#d6bfa6" stroke="#d6bfa6" stroke-width="1.51"/><path d="M1378,253L1506,779L1760,689Z" fill="#dcc2a5" stroke="#dcc2a5" stroke-width="1.51"/><path d="M3674,2419L3925,1920L3606,1871Z" fill="#bd898a" stroke="#bd898a" stroke-width="1.51"/><path d="M3199,3344L3676,2915L3285,2682Z" fill="#aa7485" stroke="#aa7485" stroke-width="1.51"/><path d="M3619,3306L3676,2915L3199,3344Z" fill="#a06981" stroke="#a06981" stroke-width="1.51"/><path d="M3600,663L3240,651L3215,1100Z" fill="#b89394" stroke="#b89394" stroke-width="1.51"/><path d="M4124,2313L3925,1920L3674,2419Z" fill="#b58088" stroke="#b58088" stroke-width="1.51"/><path d="M2360,74L1918,209L2437,764Z" fill="#d4b8a1" stroke="#d4b8a1" stroke-width="1.51"/><path d="M286,1935L194,2196L624,1936Z" fill="#dcc0a3" stroke="#dcc0a3" stroke-width="1.51"/><path d="M1464,3718L1765,3942L1902,3477Z" fill="#bf8e8d" stroke="#bf8e8d" stroke-width="1.51"/><path d="M1635,3937L1765,3942L1464,3718Z" fill="#b9888c" stroke="#b9888c" stroke-width="1.51"/><path d="M286,1935L-86,2074L194,2196Z" fill="#d5bca3" stroke="#d5bca3" stroke-width="1.51"/><path d="M207,1180L286,1380L610,1348Z" fill="#d1bda7" stroke="#d1bda7" stroke-width="1.51"/><path d="M207,1180L610,1348L654,1131Z" fill="#d3bea6" stroke="#d3bea6" stroke-width="1.51"/><path d="M1107,4060L1635,3937L1464,3718Z" fill="#b5868d" stroke="#b5868d" stroke-width="1.51"/><path d="M1126,531L769,666L927,1174Z" fill="#d3bea7" stroke="#d3bea7" stroke-width="1.51"/><path d="M1004,228L769,666L1126,531Z" fill="#cdbba7" stroke="#cdbba7" stroke-width="1.51"/><path d="M2902,536L2823,302L2437,764Z" fill="#c8a89b" stroke="#c8a89b" stroke-width="1.51"/><path d="M3324,80L2823,302L2902,536Z" fill="#b99a99" stroke="#b99a99" stroke-width="1.51"/><path d="M3713,1477L3743,1099L3226,1367Z" fill="#bc9090" stroke="#bc9090" stroke-width="1.51"/><path d="M4191,1501L3743,1099L3713,1477Z" fill="#b4858d" stroke="#b4858d" stroke-width="1.51"/><path d="M1918,209L1378,253L1760,689Z" fill="#dac2a5" stroke="#dac2a5" stroke-width="1.51"/><path d="M194,2196L200,2668L740,2390Z" fill="#cfb29f" stroke="#cfb29f" stroke-width="1.51"/><path d="M4126,2725L4124,2313L3674,2419Z" fill="#ac7685" stroke="#ac7685" stroke-width="1.51"/><path d="M3235,3682L3619,3306L3199,3344Z" fill="#9d6580" stroke="#9d6580" stroke-width="1.51"/><path d="M2908,3666L3235,3682L3199,3344Z" fill="#a06981" stroke="#a06981" stroke-width="1.51"/><path d="M3183,3892L3235,3682L2908,3666Z" fill="#9b637f" stroke="#9b637f" stroke-width="1.51"/><path d="M1765,3942L2438,4029L1902,3477Z" fill="#bc888a" stroke="#bc888a" stroke-width="1.51"/><path d="M2327,4369L2438,4029L1765,3942Z" fill="#b68188" stroke="#b68188" stroke-width="1.51"/><path d="M1918,209L1832,-266L1378,253Z" fill="#d4bfa6" stroke="#d4bfa6" stroke-width="1.51"/><path d="M2823,302L2360,74L2437,764Z" fill="#caad9d" stroke="#caad9d" stroke-width="1.51"/><path d="M2438,4029L2616,4024L2454,3553Z" fill="#ac7585" stroke="#ac7585" stroke-width="1.51"/><path d="M3925,1920L4191,1501L3713,1477Z" fill="#b9888c" stroke="#b9888c" stroke-width="1.51"/><path d="M4126,2725L3674,2419L3676,2915Z" fill="#a66f83" stroke="#a66f83" stroke-width="1.51"/><path d="M375,648L207,1180L654,1131Z" fill="#ccbba8" stroke="#ccbba8" stroke-width="1.51"/><path d="M-209,1646L-86,2074L286,1935Z" fill="#d7c0a6" stroke="#d7c0a6" stroke-width="1.51"/><path d="M2768,-155L2297,-171L2360,74Z" fill="#c5aba0" stroke="#c5aba0" stroke-width="1.51"/><path d="M3141,-234L2768,-155L2823,302Z" fill="#b69b9b" stroke="#b69b9b" stroke-width="1.51"/><path d="M3743,1099L3600,663L3215,1100Z" fill="#b68e92" stroke="#b68e92" stroke-width="1.51"/><path d="M1124,3564L1107,4060L1464,3718Z" fill="#b3878d" stroke="#b3878d" stroke-width="1.51"/><path d="M664,3200L568,3580L1124,3564Z" fill="#b58f93" stroke="#b58f93" stroke-width="1.51"/><path d="M266,3252L568,3580L664,3200Z" fill="#b29095" stroke="#b29095" stroke-width="1.51"/><path d="M1378,253L1004,228L1126,531Z" fill="#cebca7" stroke="#cebca7" stroke-width="1.51"/><path d="M769,666L375,648L654,1131Z" fill="#cdbba8" stroke="#cdbba8" stroke-width="1.51"/><path d="M1037,-64L1004,228L1378,253Z" fill="#c9baa8" stroke="#c9baa8" stroke-width="1.51"/><path d="M3235,3682L3771,3548L3619,3306Z" fill="#945c7d" stroke="#945c7d" stroke-width="1.51"/><path d="M2616,4024L3183,3892L2908,3666Z" fill="#9e6780" stroke="#9e6780" stroke-width="1.51"/><path d="M4184,3331L4126,2725L3676,2915Z" fill="#9c647f" stroke="#9c647f" stroke-width="1.51"/><path d="M4184,3331L3676,2915L3619,3306Z" fill="#965e7d" stroke="#965e7d" stroke-width="1.51"/><path d="M200,2668L266,3252L664,3200Z" fill="#ba9a98" stroke="#ba9a98" stroke-width="1.51"/><path d="M200,2668L-189,2892L266,3252Z" fill="#b79b9b" stroke="#b79b9b" stroke-width="1.51"/><path d="M194,2196L-253,2478L200,2668Z" fill="#c7ada0" stroke="#c7ada0" stroke-width="1.51"/><path d="M-209,1646L286,1935L286,1380Z" fill="#d4bea6" stroke="#d4bea6" stroke-width="1.51"/><path d="M3743,1099L3926,719L3600,663Z" fill="#ab8490" stroke="#ab8490" stroke-width="1.51"/><path d="M4322,1843L4191,1501L3925,1920Z" fill="#bb8a8c" stroke="#bb8a8c" stroke-width="1.51"/><path d="M4322,1843L3925,1920L4124,2313Z" fill="#bb878a" stroke="#bb878a" stroke-width="1.51"/><path d="M1868,4538L2327,4369L1765,3942Z" fill="#bd888a" stroke="#bd888a" stroke-width="1.51"/><path d="M747,4121L1107,4060L1124,3564Z" fill="#ac828e" stroke="#ac828e" stroke-width="1.51"/><path d="M207,1180L-209,1646L286,1380Z" fill="#cebca7" stroke="#cebca7" stroke-width="1.51"/><path d="M620,238L375,648L769,666Z" fill="#c6b8a9" stroke="#c6b8a9" stroke-width="1.51"/><path d="M3479,4010L3771,3548L3235,3682Z" fill="#8e557b" stroke="#8e557b" stroke-width="1.51"/><path d="M2360,74L2297,-171L1918,209Z" fill="#cfb7a3" stroke="#cfb7a3" stroke-width="1.51"/><path d="M2768,-155L2360,74L2823,302Z" fill="#c0a59d" stroke="#c0a59d" stroke-width="1.51"/><path d="M4414,2226L4322,1843L4124,2313Z" fill="#b88388" stroke="#b88388" stroke-width="1.51"/><path d="M4166,919L3926,719L3743,1099Z" fill="#aa818e" stroke="#aa818e" stroke-width="1.51"/><path d="M3324,80L2902,536L3240,651Z" fill="#b79697" stroke="#b79697" stroke-width="1.51"/><path d="M4166,919L3743,1099L4191,1501Z" fill="#b0848d" stroke="#b0848d" stroke-width="1.51"/><path d="M3124,4359L3479,4010L3183,3892Z" fill="#925a7d" stroke="#925a7d" stroke-width="1.51"/><path d="M2438,4029L2327,4369L2616,4024Z" fill="#ad7785" stroke="#ad7785" stroke-width="1.51"/><path d="M1868,4538L1765,3942L1635,3937Z" fill="#bb8a8c" stroke="#bb8a8c" stroke-width="1.51"/><path d="M-355,1047L-209,1646L207,1180Z" fill="#cabaa8" stroke="#cabaa8" stroke-width="1.51"/><path d="M3324,80L3240,651L3600,663Z" fill="#b08e95" stroke="#b08e95" stroke-width="1.51"/><path d="M1037,-64L620,238L1004,228Z" fill="#c4b7a9" stroke="#c4b7a9" stroke-width="1.51"/><path d="M1004,228L620,238L769,666Z" fill="#c7b9a9" stroke="#c7b9a9" stroke-width="1.51"/><path d="M4411,2631L4124,2313L4126,2725Z" fill="#aa7484" stroke="#aa7484" stroke-width="1.51"/><path d="M4411,2631L4414,2226L4124,2313Z" fill="#af7a86" stroke="#af7a86" stroke-width="1.51"/><path d="M2297,-171L1832,-266L1918,209Z" fill="#d4bda4" stroke="#d4bda4" stroke-width="1.51"/><path d="M2061,-467L1832,-266L2297,-171Z" fill="#d2bba4" stroke="#d2bba4" stroke-width="1.51"/><path d="M3761,294L3324,80L3600,663Z" fill="#a88793" stroke="#a88793" stroke-width="1.51"/><path d="M-86,2074L-253,2478L194,2196Z" fill="#ccb4a2" stroke="#ccb4a2" stroke-width="1.51"/><path d="M-559,2497L-253,2478L-86,2074Z" fill="#c9b0a1" stroke="#c9b0a1" stroke-width="1.51"/><path d="M1556,-348L1037,-64L1378,253Z" fill="#cabaa8" stroke="#cabaa8" stroke-width="1.51"/><path d="M3926,719L3761,294L3600,663Z" fill="#a68191" stroke="#a68191" stroke-width="1.51"/><path d="M4467,1522L4166,919L4191,1501Z" fill="#b3858d" stroke="#b3858d" stroke-width="1.51"/><path d="M4467,1522L4191,1501L4322,1843Z" fill="#b9888c" stroke="#b9888c" stroke-width="1.51"/><path d="M3124,4359L3183,3892L2616,4024Z" fill="#9c6580" stroke="#9c6580" stroke-width="1.51"/><path d="M3183,3892L3479,4010L3235,3682Z" fill="#91597c" stroke="#91597c" stroke-width="1.51"/><path d="M-253,2478L-189,2892L200,2668Z" fill="#bea49e" stroke="#bea49e" stroke-width="1.51"/><path d="M273,4000L747,4121L568,3580Z" fill="#a37e90" stroke="#a37e90" stroke-width="1.51"/><path d="M4184,3331L3619,3306L3771,3548Z" fill="#8e557b" stroke="#8e557b" stroke-width="1.51"/><path d="M4592,3273L4411,2631L4126,2725Z" fill="#9f6881" stroke="#9f6881" stroke-width="1.51"/><path d="M568,3580L747,4121L1124,3564Z" fill="#ab8490" stroke="#ab8490" stroke-width="1.51"/><path d="M1469,4573L1868,4538L1635,3937Z" fill="#b9898b" stroke="#b9898b" stroke-width="1.51"/><path d="M89,3726L568,3580L266,3252Z" fill="#a88894" stroke="#a88894" stroke-width="1.51"/><path d="M3875,198L3761,294L3926,719Z" fill="#a07d90" stroke="#a07d90" stroke-width="1.51"/><path d="M2327,4369L2644,4461L2616,4024Z" fill="#ab7585" stroke="#ab7585" stroke-width="1.51"/><path d="M1868,4538L2644,4461L2327,4369Z" fill="#b37e87" stroke="#b37e87" stroke-width="1.51"/><path d="M4605,926L4467,1522L4592,3273Z" fill="#be8b8b" stroke="#be8b8b" stroke-width="1.51"/><path d="M4414,2226L4467,1522L4322,1843Z" fill="#be8a8b" stroke="#be8a8b" stroke-width="1.51"/><path d="M3999,3682L4184,3331L3771,3548Z" fill="#8a517a" stroke="#8a517a" stroke-width="1.51"/><path d="M1196,4433L1635,3937L1107,4060Z" fill="#b3858d" stroke="#b3858d" stroke-width="1.51"/><path d="M1832,-266L1556,-348L1378,253Z" fill="#d0bda7" stroke="#d0bda7" stroke-width="1.51"/><path d="M2061,-467L1556,-348L1832,-266Z" fill="#d5bfa6" stroke="#d5bfa6" stroke-width="1.51"/><path d="M3479,4010L3999,3682L3771,3548Z" fill="#854d78" stroke="#854d78" stroke-width="1.51"/><path d="M3479,4010L4150,4079L3999,3682Z" fill="#7f4676" stroke="#7f4676" stroke-width="1.51"/><path d="M2644,4461L3124,4359L2616,4024Z" fill="#a26b81" stroke="#a26b81" stroke-width="1.51"/><path d="M747,4121L1196,4433L1107,4060Z" fill="#ac828e" stroke="#ac828e" stroke-width="1.51"/><path d="M2279,-498L2061,-467L2297,-171Z" fill="#cdb5a3" stroke="#cdb5a3" stroke-width="1.51"/><path d="M2279,-498L2297,-171L2768,-155Z" fill="#c6aca0" stroke="#c6aca0" stroke-width="1.51"/><path d="M3324,80L3141,-234L2823,302Z" fill="#b19599" stroke="#b19599" stroke-width="1.51"/><path d="M3338,-457L3141,-234L3324,80Z" fill="#aa8e98" stroke="#aa8e98" stroke-width="1.51"/><path d="M1196,4433L1469,4573L1635,3937Z" fill="#b5868c" stroke="#b5868c" stroke-width="1.51"/><path d="M2870,-665L2279,-498L2768,-155Z" fill="#bfa59e" stroke="#bfa59e" stroke-width="1.51"/><path d="M747,4121L499,4382L1196,4433Z" fill="#a8818f" stroke="#a8818f" stroke-width="1.51"/><path d="M-294,3455L89,3726L266,3252Z" fill="#a48795" stroke="#a48795" stroke-width="1.51"/><path d="M4317,565L3926,719L4166,919Z" fill="#a7808f" stroke="#a7808f" stroke-width="1.51"/><path d="M4317,565L3875,198L3926,719Z" fill="#a27e90" stroke="#a27e90" stroke-width="1.51"/><path d="M3761,294L3875,198L3324,80Z" fill="#a18293" stroke="#a18293" stroke-width="1.51"/><path d="M-559,2497L-189,2892L-253,2478Z" fill="#c0a69e" stroke="#c0a69e" stroke-width="1.51"/><path d="M-766,3191L-296,3190L-189,2892Z" fill="#b09499" stroke="#b09499" stroke-width="1.51"/><path d="M-189,2892L-296,3190L266,3252Z" fill="#af9499" stroke="#af9499" stroke-width="1.51"/><path d="M-675,1776L-559,2497L-86,2074Z" fill="#d1b9a3" stroke="#d1b9a3" stroke-width="1.51"/><path d="M-286,684L-355,1047L207,1180Z" fill="#c3b6a9" stroke="#c3b6a9" stroke-width="1.51"/><path d="M-286,684L207,1180L375,648Z" fill="#c2b6aa" stroke="#c2b6aa" stroke-width="1.51"/><path d="M-156,3947L273,4000L89,3726Z" fill="#997a91" stroke="#997a91" stroke-width="1.51"/><path d="M89,3726L273,4000L568,3580Z" fill="#a07f91" stroke="#a07f91" stroke-width="1.51"/><path d="M1196,4433L499,4382L1469,4573Z" fill="#ad838e" stroke="#ad838e" stroke-width="1.51"/><path d="M620,238L144,246L375,648Z" fill="#beb5aa" stroke="#beb5aa" stroke-width="1.51"/><path d="M367,-267L144,246L620,238Z" fill="#b7b1ab" stroke="#b7b1ab" stroke-width="1.51"/><path d="M521,-324L620,238L1037,-64Z" fill="#bdb4aa" stroke="#bdb4aa" stroke-width="1.51"/><path d="M-355,1047L-492,1348L-209,1646Z" fill="#cbbaa8" stroke="#cbbaa8" stroke-width="1.51"/><path d="M-675,1776L-86,2074L-209,1646Z" fill="#d5bfa6" stroke="#d5bfa6" stroke-width="1.51"/><path d="M3124,4359L3545,4306L3479,4010Z" fill="#8e567b" stroke="#8e567b" stroke-width="1.51"/><path d="M4150,4079L3545,4306L4091,4609Z" fill="#7f4676" stroke="#7f4676" stroke-width="1.51"/><path d="M4605,926L4317,565L4166,919Z" fill="#a8818f" stroke="#a8818f" stroke-width="1.51"/><path d="M1556,-348L1205,-564L1037,-64Z" fill="#c9baa8" stroke="#c9baa8" stroke-width="1.51"/><path d="M2061,-467L1367,-560L1556,-348Z" fill="#d1bea6" stroke="#d1bea6" stroke-width="1.51"/><path d="M2279,-498L1367,-560L2061,-467Z" fill="#d7c0a6" stroke="#d7c0a6" stroke-width="1.51"/><path d="M144,246L-286,684L375,648Z" fill="#bbb3ab" stroke="#bbb3ab" stroke-width="1.51"/><path d="M-355,1047L-539,935L-492,1348Z" fill="#c5b8a9" stroke="#c5b8a9" stroke-width="1.51"/><path d="M-296,3190L-294,3455L266,3252Z" fill="#a98d97" stroke="#a98d97" stroke-width="1.51"/><path d="M-766,3191L-294,3455L-296,3190Z" fill="#aa8e97" stroke="#aa8e97" stroke-width="1.51"/><path d="M-492,1348L-675,1776L-209,1646Z" fill="#d0bda7" stroke="#d0bda7" stroke-width="1.51"/><path d="M-718,738L-675,1776L-492,1348Z" fill="#cabaa8" stroke="#cabaa8" stroke-width="1.51"/><path d="M1367,-560L1205,-564L1556,-348Z" fill="#ccbba8" stroke="#ccbba8" stroke-width="1.51"/><path d="M4467,1522L4605,926L4166,919Z" fill="#af848d" stroke="#af848d" stroke-width="1.51"/><path d="M4592,3273L4467,1522L4414,2226Z" fill="#b17b86" stroke="#b17b86" stroke-width="1.51"/><path d="M4411,2631L4592,3273L4414,2226Z" fill="#a56e82" stroke="#a56e82" stroke-width="1.51"/><path d="M4184,3331L4592,3273L4126,2725Z" fill="#98607e" stroke="#98607e" stroke-width="1.51"/><path d="M4535,3635L4592,3273L4184,3331Z" fill="#8d557b" stroke="#8d557b" stroke-width="1.51"/><path d="M4535,3635L4184,3331L3999,3682Z" fill="#89507a" stroke="#89507a" stroke-width="1.51"/><path d="M186,4291L499,4382L273,4000Z" fill="#9e7c90" stroke="#9e7c90" stroke-width="1.51"/><path d="M273,4000L499,4382L747,4121Z" fill="#a27e90" stroke="#a27e90" stroke-width="1.51"/><path d="M-559,2497L-703,2621L-189,2892Z" fill="#bea49e" stroke="#bea49e" stroke-width="1.51"/><path d="M-675,1776L-703,2621L-559,2497Z" fill="#cbb2a2" stroke="#cbb2a2" stroke-width="1.51"/><path d="M3747,-348L3338,-457L3324,80Z" fill="#a48795" stroke="#a48795" stroke-width="1.51"/><path d="M3141,-234L2870,-665L2768,-155Z" fill="#b69a9b" stroke="#b69a9b" stroke-width="1.51"/><path d="M2279,-498L2870,-665L1367,-560Z" fill="#cfb6a3" stroke="#cfb6a3" stroke-width="1.51"/><path d="M3747,-348L3324,80L3875,198Z" fill="#9e8093" stroke="#9e8093" stroke-width="1.51"/><path d="M-718,738L-539,935L-286,684Z" fill="#bfb5aa" stroke="#bfb5aa" stroke-width="1.51"/><path d="M-286,684L-539,935L-355,1047Z" fill="#c1b6aa" stroke="#c1b6aa" stroke-width="1.51"/><path d="M3338,-457L2870,-665L3141,-234Z" fill="#af9499" stroke="#af9499" stroke-width="1.51"/><path d="M1367,-560L740,-746L1205,-564Z" fill="#c5b8a9" stroke="#c5b8a9" stroke-width="1.51"/><path d="M144,246L-150,264L-286,684Z" fill="#b6b1ac" stroke="#b6b1ac" stroke-width="1.51"/><path d="M1205,-564L521,-324L1037,-64Z" fill="#c1b6aa" stroke="#c1b6aa" stroke-width="1.51"/><path d="M-136,-93L-150,264L144,246Z" fill="#b0aead" stroke="#b0aead" stroke-width="1.51"/><path d="M3545,4306L4150,4079L3479,4010Z" fill="#834a78" stroke="#834a78" stroke-width="1.51"/><path d="M521,-324L367,-267L620,238Z" fill="#b8b2ab" stroke="#b8b2ab" stroke-width="1.51"/><path d="M-294,3455L-156,3947L89,3726Z" fill="#9c7e93" stroke="#9c7e93" stroke-width="1.51"/><path d="M-569,4074L-156,3947L-294,3455Z" fill="#987a91" stroke="#987a91" stroke-width="1.51"/><path d="M-156,3947L186,4291L273,4000Z" fill="#9a7a91" stroke="#9a7a91" stroke-width="1.51"/><path d="M4150,4079L4535,3635L3999,3682Z" fill="#814777" stroke="#814777" stroke-width="1.51"/><path d="M3338,-457L3716,-487L2870,-665Z" fill="#a98d97" stroke="#a98d97" stroke-width="1.51"/><path d="M4084,-313L3747,-348L3875,198Z" fill="#977991" stroke="#977991" stroke-width="1.51"/><path d="M4365,213L3875,198L4317,565Z" fill="#9e7c90" stroke="#9e7c90" stroke-width="1.51"/><path d="M4605,926L4365,213L4317,565Z" fill="#a37e90" stroke="#a37e90" stroke-width="1.51"/><path d="M4150,4079L4321,4119L4535,3635Z" fill="#7f4676" stroke="#7f4676" stroke-width="1.51"/><path d="M4363,4356L4321,4119L4150,4079Z" fill="#7f4676" stroke="#7f4676" stroke-width="1.51"/><path d="M3747,-348L3716,-487L3338,-457Z" fill="#9f8294" stroke="#9f8294" stroke-width="1.51"/><path d="M3927,-468L3716,-487L3747,-348Z" fill="#997b92" stroke="#997b92" stroke-width="1.51"/><path d="M-703,2621L-766,3191L-189,2892Z" fill="#b69b9b" stroke="#b69b9b" stroke-width="1.51"/><path d="M-675,1776L-766,3191L-703,2621Z" fill="#c3a9a0" stroke="#c3a9a0" stroke-width="1.51"/><path d="M122,-474L-136,-93L367,-267Z" fill="#b0aead" stroke="#b0aead" stroke-width="1.51"/><path d="M367,-267L-136,-93L144,246Z" fill="#b0aead" stroke="#b0aead" stroke-width="1.51"/><path d="M-557,269L-718,738L-286,684Z" fill="#bab2ab" stroke="#bab2ab" stroke-width="1.51"/><path d="M-557,269L-286,684L-150,264Z" fill="#b6b1ac" stroke="#b6b1ac" stroke-width="1.51"/><path d="M-539,935L-718,738L-492,1348Z" fill="#c3b7a9" stroke="#c3b7a9" stroke-width="1.51"/><path d="M-675,1776L-718,738L-766,3191Z" fill="#d7c0a6" stroke="#d7c0a6" stroke-width="1.51"/><path d="M1205,-564L740,-746L521,-324Z" fill="#bfb5aa" stroke="#bfb5aa" stroke-width="1.51"/><path d="M521,-324L122,-474L367,-267Z" fill="#b5b0ac" stroke="#b5b0ac" stroke-width="1.51"/><path d="M2870,-665L740,-746L1367,-560Z" fill="#d1bea6" stroke="#d1bea6" stroke-width="1.51"/><path d="M4365,213L4084,-313L3875,198Z" fill="#987a91" stroke="#987a91" stroke-width="1.51"/><path d="M4084,-313L3927,-468L3747,-348Z" fill="#977991" stroke="#977991" stroke-width="1.51"/><path d="M3716,-487L4400,-600L2870,-665Z" fill="#9d8093" stroke="#9d8093" stroke-width="1.51"/><path d="M-136,-93L-557,269L-150,264Z" fill="#b1aead" stroke="#b1aead" stroke-width="1.51"/><path d="M4084,-313L4400,-600L3927,-468Z" fill="#977991" stroke="#977991" stroke-width="1.51"/><path d="M4365,213L4467,-37L4084,-313Z" fill="#977991" stroke="#977991" stroke-width="1.51"/><path d="M4605,926L4467,-37L4365,213Z" fill="#9f7c90" stroke="#9f7c90" stroke-width="1.51"/><path d="M-136,-93L-552,-276L-557,269Z" fill="#adadad" stroke="#adadad" stroke-width="1.51"/><path d="M740,-746L122,-474L521,-324Z" fill="#b8b1ac" stroke="#b8b1ac" stroke-width="1.51"/><path d="M4091,4609L4363,4356L4150,4079Z" fill="#7f4676" stroke="#7f4676" stroke-width="1.51"/><path d="M4321,4119L4363,4356L4535,3635Z" fill="#7f4676" stroke="#7f4676" stroke-width="1.51"/><path d="M4091,4609L3545,4306L3124,4359Z" fill="#884f79" stroke="#884f79" stroke-width="1.51"/><path d="M4091,4609L3124,4359L2644,4461Z" fill="#92597c" stroke="#92597c" stroke-width="1.51"/><path d="M4091,4609L2644,4461L1868,4538Z" fill="#a06881" stroke="#a06881" stroke-width="1.51"/><path d="M1469,4573L4091,4609L1868,4538Z" fill="#ad7685" stroke="#ad7685" stroke-width="1.51"/><path d="M-156,3947L-294,4340L186,4291Z" fill="#977991" stroke="#977991" stroke-width="1.51"/><path d="M-766,3191L-777,3630L-294,3455Z" fill="#a58896" stroke="#a58896" stroke-width="1.51"/><path d="M-746,-557L-777,3630L-766,3191Z" fill="#d2baa4" stroke="#d2baa4" stroke-width="1.51"/><path d="M-569,4074L-294,4340L-156,3947Z" fill="#977991" stroke="#977991" stroke-width="1.51"/><path d="M186,4291L-294,4340L499,4382Z" fill="#9a7b91" stroke="#9a7b91" stroke-width="1.51"/><path d="M499,4382L-567,4367L1469,4573Z" fill="#a17d90" stroke="#a17d90" stroke-width="1.51"/><path d="M-777,3630L-569,4074L-294,3455Z" fill="#9b7d93" stroke="#9b7d93" stroke-width="1.51"/><path d="M-777,3630L-567,4367L-569,4074Z" fill="#977991" stroke="#977991" stroke-width="1.51"/><path d="M-569,4074L-567,4367L-294,4340Z" fill="#977991" stroke="#977991" stroke-width="1.51"/><path d="M-294,4340L-567,4367L499,4382Z" fill="#977991" stroke="#977991" stroke-width="1.51"/><path d="M-290,-544L-136,-93L122,-474Z" fill="#adadad" stroke="#adadad" stroke-width="1.51"/><path d="M-290,-544L-552,-276L-136,-93Z" fill="#adadad" stroke="#adadad" stroke-width="1.51"/><path d="M-557,269L-746,-557L-718,738Z" fill="#b1aead" stroke="#b1aead" stroke-width="1.51"/><path d="M740,-746L-290,-544L122,-474Z" fill="#b2afad" stroke="#b2afad" stroke-width="1.51"/><path d="M4467,-37L4400,-600L4084,-313Z" fill="#977991" stroke="#977991" stroke-width="1.51"/><path d="M3927,-468L4400,-600L3716,-487Z" fill="#977991" stroke="#977991" stroke-width="1.51"/><path d="M4605,926L4400,-600L4467,-37Z" fill="#997a91" stroke="#997a91" stroke-width="1.51"/><path d="M-290,-544L-746,-557L-552,-276Z" fill="#adadad" stroke="#adadad" stroke-width="1.51"/><path d="M-552,-276L-746,-557L-557,269Z" fill="#adadad" stroke="#adadad" stroke-width="1.51"/><path d="M-718,738L-746,-557L-766,3191Z" fill="#c6b8a9" stroke="#c6b8a9" stroke-width="1.51"/><path d="M740,-746L-746,-557L-290,-544Z" fill="#adadad" stroke="#adadad" stroke-width="1.51"/></svg>